<svg width="116" height="28" viewBox="0 0 116 28" fill="none" xmlns="http://www.w3.org/2000/svg">
<path d="M109.908 23.5388C106.407 23.5388 103.936 22.0755 103.767 18.7409H106.986C107.24 20.3308 108.341 20.9077 109.837 20.9077C111.475 20.9077 112.689 20.4715 112.689 19.1489C112.689 17.9248 111.574 17.6434 109.371 16.9961C106.421 16.1378 104.092 15.0685 104.092 12.0434C104.092 9.31373 106.336 7.6675 109.541 7.6675C112.633 7.6675 114.976 8.84941 115.442 12.3389L112.223 12.3248C111.786 10.6926 110.727 10.2705 109.513 10.2705C108.157 10.2705 107.31 10.9459 107.31 11.9871C107.31 13.2394 108.397 13.7177 110.571 14.365C112.915 15.0685 115.908 15.6595 115.908 18.9097C115.908 21.8082 113.522 23.5388 109.908 23.5388Z" fill="#092028"/>
<path d="M96.9175 23.567C92.3152 23.567 89.6188 20.3449 89.6188 15.575C89.6188 10.5801 92.4705 7.65344 96.621 7.65344C100.715 7.65344 102.889 10.1439 102.776 13.2253H99.5856C99.5292 11.5509 98.5974 10.4816 96.6351 10.4675C94.0093 10.4534 93.0069 12.4092 93.0069 15.5047C93.0069 19.0504 94.3057 20.7529 97.1151 20.767C98.0892 20.767 99.6421 19.8524 99.5998 18.3469H102.776C102.875 21.5971 100.009 23.567 96.9175 23.567Z" fill="#092028"/>
<path d="M86.153 5.65543C84.9389 5.65543 83.9648 4.72679 83.9648 3.40418C83.9648 2.09563 84.9389 1.16699 86.153 1.16699C87.353 1.16699 88.3271 2.09563 88.3271 3.40418C88.3271 4.72679 87.3389 5.65543 86.153 5.65543ZM84.4448 23.2996V7.93483H87.8189L87.7624 23.2996H84.4448Z" fill="#092028"/>
<path d="M74.3656 23.2996V7.93483H77.2173L77.4714 11.9027C77.9231 9.7499 79.0949 7.62528 81.7631 7.62528C82.1442 7.62528 82.5254 7.66749 82.8501 7.75192V11.2976C82.2007 11.0866 81.4384 11.0444 80.8313 11.0444C79.7443 11.0444 78.1772 11.7057 77.6973 13.0002V23.2996H74.3656Z" fill="#092028"/>
<path d="M69.0975 23.5248C66.6552 23.5248 65.2152 22.2303 65.2152 19.9087V12.1278C65.2152 11.5228 65.4835 10.974 65.9917 10.8192H63.1965V7.93483H65.2435L65.9635 3.54488H68.5046V7.93483H72.3869V10.8192H68.5046V19.0785C68.5046 20.176 68.8858 20.5419 70.2128 20.5419C71.0599 20.5419 71.7657 20.5278 72.3587 20.5137V23.3418C71.3704 23.5248 70.1281 23.5248 69.0975 23.5248Z" fill="#092028"/>
<path d="M54.2142 23.4685C51.3907 23.4685 49.4002 21.7519 49.4002 19.2896C49.4002 16.5881 50.9672 15.364 53.5366 14.8152C55.3436 14.4213 57.7153 14.2524 58.6471 14.1821V13.563C58.6471 11.4806 57.8847 10.4394 55.8942 10.4394C53.9742 10.4394 52.986 10.974 52.9436 13.4082H49.9084C49.5837 9.4263 52.1107 7.65344 56.0777 7.65344C59.1835 7.65344 61.8658 8.83535 61.8658 13.2534V23.2997H58.6047L58.6471 19.8524C58.2941 21.9348 56.8542 23.4685 54.2142 23.4685ZM55.1036 20.964C56.5577 20.964 58.3365 20.1479 58.6471 18.8534V16.0394C57.8847 16.1238 56.7271 16.3348 55.993 16.4896C53.8895 16.9258 53.0142 17.5167 53.0142 18.9519C53.0142 20.1901 53.9883 20.964 55.1036 20.964Z" fill="#092028"/>
<path d="M40.1736 23.4685C36.1784 23.4685 34.1455 20.1338 34.1455 15.5328C34.1455 10.3409 37.1384 7.65343 40.2866 7.65343C42.8277 7.65343 43.9148 8.93383 44.3242 9.96097V1.4062H47.6418V23.2996H44.3383V19.7961L44.3242 19.8383C44.1548 21.0343 43.3218 23.4685 40.1736 23.4685ZM37.5478 15.6032C37.5478 18.8956 38.9737 20.767 41.0913 20.767C43.2089 20.767 44.1406 19.4584 44.3242 18.8534L44.3383 18.8956L44.3242 11.8605V11.8745C44.0842 11.171 43.2654 10.4394 41.3454 10.4394C39.129 10.4394 37.5478 11.9449 37.5478 15.6032Z" fill="#092028"/>
<path d="M11.2427 0.411681C12.2586 -0.137227 13.4672 -0.137227 14.4831 0.411682L23.8257 5.45931C24.993 6.09001 25.7258 7.34613 25.7258 8.71648V19.2835C25.7258 20.6539 24.993 21.91 23.8257 22.5407L14.4831 27.5883C13.4672 28.1372 12.2586 28.1372 11.2427 27.5883L1.90012 22.5407C0.732781 21.91 0 20.6539 0 19.2835V8.71648C0 7.34613 0.732781 6.09001 1.90012 5.45931L11.2427 0.411681Z" fill="#092028"/>
</svg>
