<svg width="137" height="32" viewBox="0 0 137 32" fill="none" xmlns="http://www.w3.org/2000/svg">
<mask id="mask0_94_1927" style="mask-type:luminance" maskUnits="userSpaceOnUse" x="0" y="4" width="137" height="24">
<path d="M137 4H0V28H137V4Z" fill="white"/>
</mask>
<g mask="url(#mask0_94_1927)">
<path fill-rule="evenodd" clip-rule="evenodd" d="M9.97595 27.7901L3.14834 23.8966C3.02968 23.8313 2.96432 23.8202 2.96432 23.7006C2.96432 23.3738 2.75718 23.1113 2.49574 23.1113C2.40609 23.1181 2.31977 23.1483 2.24536 23.1987C2.12571 23.2752 2.10459 23.2863 1.8532 23.1556L0.66466 22.4798C0.228257 22.2294 0 21.8041 0 21.2802V10.6547C0 10.164 0.26144 9.7497 0.719965 9.48825L10.0312 4.17701C10.4667 3.92562 10.9574 3.94674 11.4149 4.21019L20.7181 9.52145C21.1545 9.77285 21.3827 10.1972 21.3827 10.7221V21.3456C21.3827 21.8363 21.1213 22.2505 20.6628 22.512L11.3596 27.8242C10.9232 28.0736 10.4335 28.0535 9.97595 27.7901Z" fill="#CFCDCE"/>
<path fill-rule="evenodd" clip-rule="evenodd" d="M19.8052 8.99759L20.7222 9.52147C21.1586 9.77187 21.3859 10.1972 21.3859 10.7211V21.3446C21.3859 21.8363 21.1244 22.2496 20.6659 22.511L12.0495 27.4311C11.243 27.8886 11.0459 27.6071 11.0459 26.7001V20.5914C11.0459 20.3622 11.0238 20.3079 11.1877 20.2425C11.3838 20.1661 11.5145 19.9479 11.5145 19.6754C11.5145 19.424 11.3949 19.2179 11.2199 19.1304C11.0449 19.0419 11.0449 19.0308 11.0449 18.8147V18.1047C11.0449 17.3305 11.1535 17.0801 11.7428 16.5783L20.2376 11.1685L19.8012 8.99658L19.8052 8.99759Z" fill="#909090"/>
<path fill-rule="evenodd" clip-rule="evenodd" d="M0.0947555 10.1972C0.203354 9.90255 0.421556 9.66425 0.728244 9.48825L10.0295 4.17701C10.4659 3.92562 10.9566 3.94674 11.4141 4.21019L20.7173 9.52145C21.0009 9.68635 21.197 9.92465 21.2955 10.2083C21.1879 10.5039 20.9687 10.7421 20.663 10.9181L11.3598 16.2294C10.9234 16.4807 10.4327 16.4587 9.97519 16.1962L0.671934 10.885C0.401706 10.7335 0.196098 10.4885 0.09375 10.1961L0.0947555 10.1972Z" fill="#ADABAB"/>
<path fill-rule="evenodd" clip-rule="evenodd" d="M4.26172 10.0551C4.33221 9.87103 4.46831 9.71953 4.64382 9.62978C6.48799 8.57096 8.21049 7.58956 10.2929 6.40101C10.5544 6.24817 10.8611 6.25923 11.1336 6.42313L16.7827 9.65193C16.9576 9.75048 17.0773 9.89323 17.1316 10.0662C17.0611 10.2503 16.925 10.4018 16.7495 10.4915L11.1004 13.7093C10.8389 13.8621 10.5322 13.851 10.2597 13.6871L4.61064 10.4694C4.44765 10.3786 4.32355 10.2312 4.26172 10.0551Z" fill="#1F2021"/>
<path d="M36.4192 15.1995C36.1594 14.9211 35.8611 14.6814 35.5333 14.4875C35.2454 14.3168 34.9178 14.2242 34.5831 14.2191C34.1407 14.2191 33.7445 14.2985 33.3805 14.4564C33.0379 14.6154 32.7271 14.8355 32.4634 15.1059C32.2227 15.383 32.03 15.6984 31.8933 16.0391C31.7666 16.387 31.7022 16.751 31.7022 17.1301C31.7022 17.5102 31.7666 17.8742 31.8933 18.2221C32.0341 18.57 32.21 18.8868 32.4634 19.1552C32.7158 19.4237 33.0165 19.646 33.3805 19.8048C33.7445 19.9627 34.1246 20.0421 34.5831 20.0421C34.9632 20.0421 35.3101 19.9627 35.6429 19.8209C35.9597 19.663 36.2432 19.4257 36.4665 19.1251L38.0804 20.8647C37.829 21.1177 37.5409 21.3313 37.2257 21.4982C36.9218 21.6669 36.6043 21.8099 36.2764 21.9255C35.9597 22.0351 35.6439 22.1156 35.3443 22.1467C35.0426 22.193 34.7913 22.2252 34.568 22.2252C33.8608 22.2268 33.1589 22.1036 32.4946 21.8612C31.8718 21.6357 31.3015 21.2856 30.8184 20.8325C30.3386 20.3784 29.9517 19.8354 29.6791 19.2337C29.4008 18.5676 29.2608 17.8519 29.2678 17.1301C29.2678 16.3558 29.4096 15.659 29.6801 15.0416C29.9481 14.4331 30.3351 13.8844 30.8184 13.4277C31.3017 12.9749 31.872 12.6249 32.4946 12.399C33.1585 12.1549 33.8607 12.0312 34.568 12.034C35.1854 12.034 35.8179 12.1607 36.4353 12.399C37.0679 12.6337 37.6368 13.0132 38.0965 13.5071L36.4202 15.2005L36.4192 15.1995ZM40.0261 12.2874H42.4615V22.0029H40.0271L40.0261 12.2874ZM39.6782 8.98022C39.6782 8.58605 39.8189 8.25321 40.1045 7.96865C40.4052 7.66799 40.7692 7.5252 41.2126 7.5252C41.6561 7.5252 42.0362 7.66598 42.3207 7.95155C42.6385 8.22003 42.7803 8.56896 42.7803 8.98022C42.7803 9.39248 42.6214 9.75648 42.3217 10.04C42.0201 10.3085 41.6561 10.4523 41.2126 10.4523C40.7702 10.4523 40.3901 10.3095 40.1045 10.025C39.8199 9.70823 39.6782 9.37538 39.6782 8.98022ZM44.3097 12.2874H46.6194V13.8541H46.6667C46.9102 13.3556 47.2746 12.926 47.7266 12.6042C48.2001 12.2402 48.8346 12.0511 49.6561 12.0511C50.3056 12.0511 50.8586 12.1617 51.3011 12.3679C51.7596 12.5891 52.1236 12.8737 52.4091 13.2226C52.6936 13.5695 52.9001 13.9808 53.0096 14.4393C53.1201 14.8988 53.2006 15.3724 53.2006 15.8802V22.0039H50.7641V17.0838C50.7641 16.8164 50.7491 16.5137 50.7171 16.199C50.6941 15.878 50.6191 15.5629 50.4956 15.2658C50.3931 14.979 50.2121 14.7267 49.9726 14.5378C49.7356 14.3327 49.4026 14.2382 48.9766 14.2382C48.5491 14.2382 48.2321 14.3015 47.9476 14.4433C47.6796 14.5777 47.4426 14.766 47.2506 14.9963C47.0746 15.2337 46.9456 15.5027 46.8708 15.7887C46.788 16.0929 46.7458 16.4066 46.7451 16.7218V22.007H44.3087L44.3097 12.2874ZM62.7671 20.5469H62.7201C62.3981 21.1218 61.8986 21.5769 61.2961 21.8441C60.6901 22.1179 60.0321 22.2585 59.3666 22.2563C58.6076 22.2563 57.9426 22.1296 57.3406 21.8762C56.7721 21.6161 56.2611 21.2452 55.8381 20.7852C55.4136 20.3181 55.0901 19.7683 54.8881 19.1703C54.6666 18.5529 54.5711 17.8883 54.5711 17.1613C54.5711 16.4343 54.6816 15.7837 54.9191 15.1522C55.1566 14.5348 55.4721 13.9958 55.8681 13.5373C56.2851 13.0738 56.7981 12.7066 57.3716 12.4614C57.9671 12.1874 58.6156 12.0467 59.2711 12.0491C59.7296 12.0491 60.1406 12.0964 60.4876 12.1909C60.8366 12.2864 61.1536 12.4121 61.4221 12.5559C61.6906 12.6987 61.9276 12.8726 62.1186 13.0466C62.3086 13.2055 62.4656 13.3634 62.5771 13.5373H62.6406V6.68659H65.0771V22.0029H62.7671V20.5469ZM57.0236 17.1442C57.0236 17.5243 57.0881 17.8883 57.2146 18.2362C57.3556 18.5841 57.5316 18.8998 57.7841 19.1693C58.0371 19.4378 58.3371 19.66 58.7021 19.8179C59.0661 19.9768 59.4461 20.0562 59.9046 20.0562C60.3631 20.0562 60.7431 19.9768 61.1071 19.8179C61.4451 19.6668 61.7471 19.4458 61.9931 19.1693C62.2466 18.9008 62.4366 18.5841 62.5631 18.2362C62.7051 17.8883 62.7691 17.5243 62.7691 17.1442C62.7691 16.7651 62.7051 16.4001 62.5631 16.0532C62.4386 15.7065 62.2446 15.3889 61.9931 15.12C61.7466 14.8441 61.4451 14.6228 61.1081 14.4704C60.7291 14.3051 60.3181 14.2241 59.9046 14.2331C59.4461 14.2331 59.0661 14.3116 58.7021 14.4704C58.3591 14.6294 58.0481 14.8495 57.7841 15.12C57.5436 15.3972 57.3511 15.7126 57.2146 16.0532C57.0881 16.4001 57.0236 16.7651 57.0236 17.1442ZM68.8246 17.9989C68.9041 18.7259 69.1886 19.296 69.6786 19.7073C70.1691 20.1196 70.7541 20.3076 71.4341 20.3076C72.0356 20.3076 72.5421 20.1809 72.9526 19.9436C73.3646 19.6902 73.7286 19.3735 74.0446 18.9944L75.7841 20.3066C75.2151 21.0034 74.5826 21.5092 73.8856 21.8099C73.1851 22.1077 72.4311 22.2583 71.6701 22.2523C70.9636 22.2541 70.2621 22.1313 69.5981 21.8893C68.9746 21.6635 68.4041 21.3132 67.9206 20.8596C67.4416 20.4058 67.0546 19.8631 66.7826 19.2618C66.5036 18.5959 66.3636 17.8802 66.3701 17.1583C66.3701 16.384 66.5121 15.6871 66.7826 15.0697C67.0671 14.4363 67.4461 13.8993 67.9206 13.4549C68.4046 13.002 68.9751 12.652 69.5981 12.4262C70.2616 12.1825 70.9636 12.0592 71.6701 12.0622C72.3511 12.0622 72.9526 12.1889 73.5066 12.4262C74.0571 12.6501 74.5496 12.9964 74.9466 13.4388C75.3586 13.8822 75.6581 14.4353 75.8796 15.0999C76.1166 15.7495 76.2276 16.4926 76.2276 17.3473V18.012H68.8216V17.9969L68.8246 17.9979V17.9989ZM73.8091 16.1628C73.7941 15.4508 73.5716 14.8807 73.1446 14.4855C72.7181 14.0733 72.1156 13.853 71.3416 13.853C70.6136 13.853 70.0281 14.0592 69.6001 14.4865C69.1886 14.8978 68.9201 15.4679 68.8246 16.1628H73.8091ZM77.8211 12.2864H80.2566V13.8209H80.3041C80.5726 13.2507 80.9536 12.8083 81.4601 12.5086C81.9651 12.1909 82.5361 12.0491 83.1836 12.0491C83.3246 12.0491 83.4681 12.0652 83.6101 12.0964C83.7521 12.1285 83.9106 12.1607 84.0536 12.1919V14.5328C83.8546 14.4849 83.6546 14.4427 83.4531 14.4061C83.2666 14.3617 83.0751 14.3404 82.8831 14.3427C82.3131 14.3427 81.8546 14.4534 81.5066 14.6595C81.1746 14.8656 80.9061 15.1029 80.7151 15.3714C80.5491 15.6177 80.4261 15.8904 80.3511 16.1779C80.3101 16.3761 80.2836 16.5771 80.2716 16.7792V21.9999H77.8361V12.2874H77.8211V12.2864ZM85.3881 6.68558H87.8231V13.5051H87.8876C88.0146 13.3473 88.1561 13.1884 88.3461 13.0144C88.5371 12.8405 88.7586 12.6826 89.0431 12.5237C89.3401 12.3693 89.6531 12.2473 89.9761 12.1597C90.3741 12.0595 90.7836 12.0118 91.1941 12.0179C91.8906 12.0179 92.5231 12.1587 93.0931 12.4292C93.6786 12.6826 94.1691 13.0466 94.5646 13.5051C94.9756 13.9647 95.3086 14.5026 95.5296 15.12C95.7671 15.7374 95.8766 16.4021 95.8766 17.1291C95.8796 17.8114 95.7726 18.4898 95.5601 19.1382C95.3516 19.7334 95.0291 20.282 94.6096 20.753C94.1866 21.2203 93.6691 21.5922 93.0911 21.8441C92.4911 22.0975 91.8266 22.2241 91.0821 22.2241C90.4171 22.2271 89.7586 22.0865 89.1526 21.8119C88.5521 21.5444 88.0936 21.116 87.7286 20.5147H87.6816V21.9708H85.3716V6.68659L85.3881 6.68558ZM93.4401 17.1442C93.4401 16.7651 93.3771 16.4001 93.2351 16.0532C93.1106 15.7064 92.9166 15.3889 92.6651 15.12C92.4186 14.844 92.1171 14.6228 91.7801 14.4704C91.4006 14.3051 90.9901 14.2241 90.5766 14.2331C90.1181 14.2331 89.7376 14.3116 89.3736 14.4704C89.0311 14.6294 88.7196 14.8495 88.4556 15.12C88.2151 15.3971 88.0221 15.7125 87.8856 16.0532C87.7601 16.4001 87.6956 16.7651 87.6956 17.1442C87.6956 17.5243 87.7601 17.8883 87.8866 18.2362C88.0276 18.5841 88.2036 18.8998 88.4556 19.1693C88.7091 19.4378 89.0086 19.66 89.3736 19.8179C89.7216 19.9768 90.1181 20.0562 90.5766 20.0562C91.0351 20.0562 91.4151 19.9768 91.7791 19.8179C92.1431 19.66 92.4286 19.4388 92.6641 19.1693C92.9186 18.9008 93.1086 18.5841 93.2351 18.2362C93.3741 17.8891 93.4441 17.5181 93.4401 17.1442ZM97.4501 6.68457H99.8866V22.0019H97.4501V6.68457ZM101.49 17.1442C101.49 16.3689 101.633 15.6731 101.902 15.0557C102.17 14.4472 102.557 13.8984 103.04 13.4418C103.524 12.9885 104.094 12.6382 104.718 12.4121C105.381 12.1684 106.083 12.0451 106.79 12.0481C107.534 12.0481 108.214 12.1748 108.863 12.4121C109.486 12.638 110.057 12.9883 110.541 13.4418C111.014 13.8842 111.379 14.4232 111.649 15.0557C111.933 15.6731 112.075 16.3689 112.075 17.1442C112.075 17.9204 111.933 18.6153 111.649 19.2478C111.388 19.8485 111.012 20.3918 110.541 20.8466C110.057 21.2994 109.486 21.6494 108.863 21.8752C108.199 22.119 107.497 22.2423 106.79 22.2392C106.083 22.2422 105.381 22.1189 104.718 21.8752C104.094 21.6496 103.524 21.2997 103.04 20.8466C102.561 20.3924 102.174 19.8494 101.902 19.2478C101.616 18.6153 101.49 17.9034 101.49 17.1442ZM103.911 17.1442C103.911 17.5243 103.974 17.8883 104.101 18.2362C104.243 18.5841 104.419 18.8998 104.671 19.1693C104.925 19.4378 105.225 19.66 105.589 19.8179C105.953 19.9768 106.333 20.0562 106.792 20.0562C107.25 20.0562 107.631 19.9768 107.995 19.8179C108.335 19.6711 108.638 19.4494 108.88 19.1693C109.133 18.9008 109.324 18.5841 109.451 18.2362C109.592 17.8883 109.656 17.5243 109.656 17.1442C109.656 16.7651 109.592 16.4001 109.451 16.0532C109.326 15.7066 109.132 15.3891 108.88 15.12C108.634 14.844 108.332 14.6227 107.995 14.4704C107.616 14.3053 107.205 14.2244 106.792 14.2331C106.333 14.2331 105.953 14.3116 105.589 14.4704C105.246 14.6294 104.935 14.8495 104.671 15.12C104.431 15.3973 104.238 15.7127 104.101 16.0532C103.974 16.4028 103.91 16.7722 103.911 17.1442ZM120.522 15.1975C120.262 14.9189 119.964 14.6792 119.636 14.4855C119.319 14.3116 119.003 14.2171 118.686 14.2171C118.243 14.2171 117.848 14.2975 117.484 14.4554C117.141 14.6142 116.83 14.8344 116.566 15.1049C116.325 15.3823 116.133 15.6976 115.996 16.0381C115.869 16.3878 115.804 16.7571 115.806 17.1291C115.806 17.5092 115.869 17.8732 115.996 18.2211C116.137 18.568 116.313 18.8848 116.566 19.1542C116.819 19.4217 117.12 19.6449 117.484 19.8028C117.848 19.9617 118.228 20.0411 118.686 20.0411C119.066 20.0411 119.413 19.9607 119.746 19.8199C120.063 19.661 120.347 19.4247 120.569 19.1231L122.184 20.8637C121.933 21.1165 121.645 21.33 121.33 21.4971C121.026 21.6654 120.708 21.808 120.38 21.9235C120.063 22.0341 119.747 22.1145 119.447 22.1447C119.147 22.192 118.894 22.2241 118.671 22.2241C117.964 22.2257 117.262 22.1025 116.598 21.8601C115.975 21.6343 115.404 21.284 114.921 20.8305C114.441 20.3766 114.055 19.834 113.782 19.2327C113.504 18.5667 113.364 17.8509 113.371 17.1291C113.371 16.3548 113.513 15.658 113.782 15.0406C114.05 14.4317 114.437 13.8826 114.921 13.4257C115.405 12.973 115.975 12.6231 116.598 12.397C117.262 12.1532 117.964 12.03 118.671 12.033C119.289 12.033 119.921 12.1597 120.539 12.397C121.171 12.6318 121.74 13.0113 122.2 13.5051L120.524 15.1995L120.522 15.1975ZM124.197 6.68457H126.633V16.3056L130.383 12.2703H133.5L129.324 16.6846L133.753 21.9868H130.527L126.665 17.0195H126.618V22.0039H124.182V6.68659H124.197V6.68457Z" fill="#141414"/>
</g>
</svg>
