<svg width="114" height="32" viewBox="0 0 114 32" fill="none" xmlns="http://www.w3.org/2000/svg">
<path d="M87.8136 23.4944C85.0691 23.4944 83.1324 22.3446 82.9996 19.7245H85.5228C85.722 20.9738 86.5852 21.4271 87.7583 21.4271C89.042 21.4271 89.9938 21.0843 89.9938 20.0451C89.9938 19.0833 89.1195 18.8622 87.3931 18.3537C85.0801 17.6793 83.2541 16.8391 83.2541 14.4622C83.2541 12.3175 85.0137 11.024 87.5259 11.024C89.9495 11.024 91.7866 11.9527 92.1518 14.6944L89.6286 14.6833C89.2855 13.4009 88.4555 13.0693 87.5037 13.0693C86.4413 13.0693 85.7773 13.5999 85.7773 14.418C85.7773 15.4019 86.6295 15.7778 88.3338 16.2864C90.1708 16.8391 92.517 17.3034 92.517 19.8572C92.517 22.1346 90.6467 23.4944 87.8136 23.4944Z" fill="#09111A"/>
<path d="M77.6303 23.5165C74.0225 23.5165 71.9088 20.9848 71.9088 17.2371C71.9088 13.3125 74.1443 11.013 77.3979 11.013C80.6072 11.013 82.3115 12.9698 82.223 15.3909H79.7219C79.6776 14.0753 78.9472 13.2351 77.4089 13.224C75.3505 13.213 74.5648 14.7497 74.5648 17.1818C74.5648 19.9678 75.5829 21.3055 77.7852 21.3165C78.5488 21.3165 79.7662 20.5979 79.733 19.415H82.223C82.3005 21.9688 80.0539 23.5165 77.6303 23.5165Z" fill="#09111A"/>
<path d="M69.1919 9.44313C68.2402 9.44313 67.4766 8.71349 67.4766 7.67429C67.4766 6.64615 68.2402 5.9165 69.1919 5.9165C70.1326 5.9165 70.8962 6.64615 70.8962 7.67429C70.8962 8.71349 70.1215 9.44313 69.1919 9.44313ZM67.8529 23.3064V11.2341H70.4978L70.4536 23.3064H67.8529Z" fill="#09111A"/>
<path d="M59.9517 23.3064V11.2341H62.1872L62.3864 14.3517C62.7405 12.6602 63.659 10.9909 65.7506 10.9909C66.0494 10.9909 66.3483 11.024 66.6028 11.0904V13.8763C66.0937 13.7105 65.4961 13.6773 65.0202 13.6773C64.1681 13.6773 62.9397 14.1969 62.5634 15.214V23.3064H59.9517Z" fill="#09111A"/>
<path d="M55.822 23.4833C53.9075 23.4833 52.7787 22.4662 52.7787 20.6421V14.5286C52.7787 14.0532 52.9889 13.622 53.3873 13.5004H51.1961V11.2341H52.8008L53.3652 7.78484H55.3572V11.2341H58.4006V13.5004H55.3572V19.9899C55.3572 20.8522 55.656 21.1396 56.6963 21.1396C57.3603 21.1396 57.9136 21.1286 58.3784 21.1175V23.3396C57.6038 23.4833 56.6299 23.4833 55.822 23.4833Z" fill="#09111A"/>
<path d="M44.1549 23.4391C41.9415 23.4391 40.3811 22.0904 40.3811 20.1557C40.3811 18.0331 41.6095 17.0713 43.6237 16.6401C45.0402 16.3306 46.8994 16.1979 47.6298 16.1426V15.6562C47.6298 14.02 47.0322 13.2019 45.4718 13.2019C43.9667 13.2019 43.1921 13.622 43.1589 15.5346H40.7795C40.525 12.406 42.5059 11.013 45.6157 11.013C48.0504 11.013 50.153 11.9416 50.153 15.413V23.3065H47.5966L47.6298 20.5979C47.3532 22.2341 46.2244 23.4391 44.1549 23.4391ZM44.8521 21.4713C45.9919 21.4713 47.3864 20.8301 47.6298 19.813V17.6019C47.0322 17.6683 46.1248 17.8341 45.5493 17.9557C43.9003 18.2984 43.2142 18.7627 43.2142 19.8904C43.2142 20.8632 43.9778 21.4713 44.8521 21.4713Z" fill="#09111A"/>
<path d="M33.1484 23.4391C30.0165 23.4391 28.4229 20.819 28.4229 17.2039C28.4229 13.1245 30.769 11.013 33.2369 11.013C35.2289 11.013 36.081 12.019 36.402 12.8261V6.10445H39.0027V23.3064H36.4131V20.5537L36.402 20.5869C36.2692 21.5265 35.6162 23.4391 33.1484 23.4391ZM31.0899 17.2592C31.0899 19.8461 32.2077 21.3165 33.8677 21.3165C35.5277 21.3165 36.2581 20.2884 36.402 19.813L36.4131 19.8461L36.402 14.3185V14.3296C36.2139 13.7768 35.572 13.2019 34.0669 13.2019C32.3294 13.2019 31.0899 14.3848 31.0899 17.2592Z" fill="#09111A"/>
<path d="M110.639 9.44311C109.684 9.44311 108.918 8.71347 108.918 7.67428C108.918 6.64615 109.684 5.9165 110.639 5.9165C111.583 5.9165 112.35 6.64615 112.35 7.67428C112.35 8.71347 111.572 9.44311 110.639 9.44311ZM109.295 23.3063V11.2341H111.95L111.906 23.3063H109.295Z" fill="#09111A"/>
<path d="M101.82 23.4363C99.6083 23.4363 98.0494 22.0881 98.0494 20.1543C98.0494 18.0326 99.2766 17.0712 101.289 16.6402C102.704 16.3308 104.561 16.1982 105.291 16.1429V15.6567C105.291 14.0212 104.694 13.2035 103.135 13.2035C101.632 13.2035 100.858 13.6234 100.824 15.5351H98.4474C98.1931 12.4078 100.172 11.0155 103.279 11.0155C105.711 11.0155 107.812 11.9437 107.812 15.4136V23.3037H105.258L105.291 20.5963C105.015 22.2318 103.887 23.4363 101.82 23.4363ZM102.516 21.4693C103.655 21.4693 105.048 20.8284 105.291 19.8117V17.6016C104.694 17.6679 103.788 17.8337 103.213 17.9552C101.565 18.2978 100.88 18.7619 100.88 19.8891C100.88 20.8615 101.643 21.4693 102.516 21.4693Z" fill="#09111A"/>
<path d="M95.2536 23.4821C94.3114 23.4821 93.5577 22.7565 93.5577 21.712C93.5577 20.6896 94.3114 19.953 95.2536 19.953C96.2068 19.953 96.9494 20.6896 96.9494 21.712C96.9494 22.7565 96.2068 23.4821 95.2536 23.4821Z" fill="#09111A"/>
<path d="M10.4695 5.32346C11.2659 4.89218 12.2133 4.89218 13.0097 5.32346L20.3334 9.28946C21.2485 9.78501 21.8229 10.772 21.8229 11.8487V20.1513C21.8229 21.228 21.2485 22.215 20.3334 22.7105L13.0097 26.6765C12.2133 27.1078 11.2659 27.1078 10.4695 26.6765L3.14577 22.7105C2.23068 22.215 1.65625 21.228 1.65625 20.1513V11.8487C1.65625 10.772 2.23068 9.78501 3.14577 9.28946L10.4695 5.32346Z" fill="#09111A"/>
</svg>
