<svg width="80" height="32" viewBox="0 0 80 32" fill="none" xmlns="http://www.w3.org/2000/svg">
<g clip-path="url(#clip0_100_1717)">
<path d="M0 0.63623V7.68713H24.5493V0.63623H0ZM23.0155 6.15339H1.53378V2.17001H23.0155V6.15339Z" fill="#01A982"/>
<path d="M4.46797 22.4147V23.2727H0.982507V25.4289H4.15231V26.2647H0.982507V28.612H4.46797V29.4701H0V22.4191H4.46797V22.4147ZM6.89533 29.4656H5.93505V24.273H6.83753V25.2421C7.211 24.5887 7.80673 24.1574 8.5758 24.1574C9.78507 24.1574 10.4964 24.9487 10.4964 26.1313V29.4611H9.53613V26.1535C9.53613 25.4645 9.176 25.0599 8.37573 25.0599C7.68667 25.0599 7.09987 25.5223 6.8998 26.1447V29.4611L6.89533 29.4656ZM14.4219 29.5767C13.1238 29.5767 12.6037 29.0121 12.6037 27.9852V25.1177H11.51V24.273H12.6037V22.9304H13.5639V24.273H15.0399V25.1177H13.5639V27.8918C13.5639 28.5142 13.9151 28.6787 14.5109 28.6787C14.6665 28.6787 14.8265 28.6565 14.9599 28.612H15.0399V29.4567C14.8932 29.5145 14.6887 29.5679 14.4175 29.5679L14.4219 29.5767ZM18.6409 29.5767C16.916 29.5767 15.8179 28.5631 15.8179 26.9271C15.8179 25.2911 16.836 24.1619 18.3209 24.1619C19.8057 24.1619 20.6327 25.1888 20.6327 26.7137V27.2205H16.8093C16.9427 28.2341 17.6673 28.7099 18.6499 28.7099C19.2589 28.7099 19.7213 28.6076 20.1747 28.2831H20.277V29.1055C19.8147 29.4567 19.2145 29.5767 18.6409 29.5767ZM16.8227 26.4603H19.6991C19.6635 25.5133 19.17 25.0065 18.3342 25.0065C17.4984 25.0065 16.9471 25.6156 16.8227 26.4603ZM24.8339 25.2511C24.7005 25.1843 24.496 25.1399 24.2826 25.1399C23.6735 25.1399 23.1889 25.5711 22.9845 26.2691V29.4611H22.0242V24.2685H22.9267V25.3844C23.2334 24.5397 23.7847 24.1885 24.4027 24.1885C24.6294 24.1885 24.8294 24.2241 24.9095 24.2685V25.2511H24.8294H24.8339ZM26.83 28.612V31.3639H25.8697V24.2685H26.7722V25.1621C27.079 24.6331 27.6747 24.1574 28.4749 24.1574C30.0443 24.1574 30.8667 25.3977 30.8667 26.8071C30.8667 28.2163 30.0443 29.5145 28.4749 29.5145C27.7325 29.5145 27.1457 29.1099 26.8255 28.612H26.83ZM29.8887 26.8071C29.8887 25.7579 29.3019 25.0599 28.2527 25.0599C27.6303 25.0599 27.1367 25.3889 26.83 25.9535V27.7362C27.1367 28.2875 27.6303 28.6298 28.2527 28.6298C29.3019 28.6298 29.8887 27.9051 29.8887 26.8115V26.8071ZM35.1257 25.2511C34.9924 25.1843 34.7879 25.1399 34.5745 25.1399C33.9654 25.1399 33.4808 25.5711 33.2763 26.2691V29.4611H32.3161V24.2685H33.2185V25.3844C33.5209 24.5397 34.0765 24.1885 34.6945 24.1885C34.9213 24.1885 35.1213 24.2241 35.2013 24.2685V25.2511H35.1213H35.1257ZM36.7618 23.7484C36.4017 23.7484 36.0727 23.4417 36.0727 23.0727C36.0727 22.7037 36.4017 22.4058 36.7618 22.4058C37.1219 22.4058 37.4509 22.6992 37.4509 23.0727C37.4509 23.4461 37.1352 23.7484 36.7618 23.7484ZM37.2375 29.4567H36.2772V24.2641H37.2375V29.4567ZM38.7935 28.2253H38.8824C39.3092 28.5765 39.9449 28.7543 40.5407 28.7543C41.1053 28.7543 41.6032 28.5409 41.6032 28.0785C41.6032 27.6162 41.1853 27.5139 40.3628 27.2427C39.6293 26.9938 38.8068 26.7359 38.8068 25.7534C38.8068 24.7709 39.6426 24.1529 40.7141 24.1529C41.3231 24.1529 41.8655 24.2775 42.3145 24.5797V25.46H42.2123C41.8077 25.1533 41.3187 24.9621 40.7229 24.9621C40.1272 24.9621 39.776 25.2333 39.776 25.6156C39.776 26.0424 40.1361 26.158 40.9852 26.4159C41.741 26.6648 42.5768 26.9582 42.5768 27.9407C42.5768 29.0121 41.6965 29.5634 40.5585 29.5634C39.8693 29.5634 39.1803 29.3945 38.7979 29.0877V28.2163L38.7935 28.2253ZM46.4757 29.5679C44.7508 29.5679 43.6527 28.5543 43.6527 26.9182C43.6527 25.2822 44.6663 24.1529 46.1556 24.1529C47.6449 24.1529 48.4674 25.1799 48.4674 26.7048V27.2116H44.6441C44.7775 28.2253 45.5021 28.7009 46.4846 28.7009C47.0937 28.7009 47.556 28.5987 48.0095 28.2741H48.1117V29.0966C47.6494 29.4478 47.0492 29.5679 46.4757 29.5679ZM44.6574 26.4514H47.5338C47.4982 25.5045 47.0047 24.9977 46.1689 24.9977C45.3331 24.9977 44.7819 25.6067 44.6574 26.4514ZM5.92617 12.354V19.4049H4.39239V16.4841H1.53378V19.4049H0V12.354H1.53378V15.1415H4.38794V12.354H5.92172H5.92617ZM10.0874 19.5294C8.1446 19.5294 7.10873 18.4802 7.10873 16.7864C7.10873 15.0925 8.19347 13.9767 9.7584 13.9767C11.4522 13.9767 12.2969 15.0392 12.2969 16.6263V17.2221H8.68693C8.79813 18.0934 9.4872 18.3157 10.1629 18.3157C10.772 18.3157 11.2477 18.2357 11.7412 17.9689H11.9101V19.0759C11.4567 19.4049 10.7365 19.5294 10.0829 19.5294H10.0874ZM8.67807 16.2573H10.7898C10.7453 15.466 10.4075 15.1192 9.78507 15.1192C9.256 15.1192 8.78033 15.3682 8.67807 16.2573ZM14.1063 19.4049L12.9993 14.2834V14.1011H14.4219L15.0221 17.3287L15.1689 18.3646L15.3733 17.3287L16.0935 14.1011H17.7073L18.4187 17.3287L18.6321 18.3646L18.801 17.3287L19.4012 14.1011H20.7571V14.2834L19.6413 19.4049H17.6763L17.0449 16.573L16.8627 15.5105L16.6804 16.573L16.058 19.4049H14.1063ZM23.4601 19.5294C22.3309 19.5294 21.7663 19.0093 21.7663 17.8045V12.354H23.3001V17.7022C23.3001 18.0757 23.4557 18.2001 23.8203 18.2001C23.9314 18.2001 24.1137 18.1645 24.2248 18.1334H24.2471V19.4093C24.0781 19.4671 23.7491 19.5339 23.4557 19.5339L23.4601 19.5294ZM27.6791 19.5294C25.7363 19.5294 24.7005 18.4802 24.7005 16.7864C24.7005 15.0925 25.7853 13.9767 27.3501 13.9767C29.044 13.9767 29.8887 15.0392 29.8887 16.6263V17.2221H26.2787C26.3899 18.0934 27.079 18.3157 27.7547 18.3157C28.3638 18.3157 28.8395 18.2357 29.3329 17.9689H29.5019V19.0759C29.0484 19.4049 28.3282 19.5294 27.6747 19.5294H27.6791ZM26.2699 16.2573H28.3816C28.3371 15.466 27.9993 15.1192 27.3769 15.1192C26.8478 15.1192 26.3721 15.3682 26.2699 16.2573ZM35.0946 17.4755V15.3637H32.8495V17.4043C32.8495 17.9467 33.0318 18.1957 33.5386 18.1957C33.6853 18.1957 33.8765 18.1512 33.9787 18.1067H34.1255V19.3693C33.9209 19.436 33.6187 19.5249 33.1652 19.5249C31.867 19.5249 31.3157 18.9025 31.3157 17.471V15.3593H30.3999V14.0967H31.3157V12.8119H32.8495V14.0967H35.0946V12.8119H36.6284V14.0967H37.9043V15.3593H36.6284V17.3999C36.6284 17.9423 36.8107 18.1912 37.3175 18.1912C37.4642 18.1912 37.6554 18.1468 37.7576 18.1023H37.9043V19.3649C37.6998 19.4316 37.3975 19.5205 36.9441 19.5205C35.6459 19.5205 35.0946 18.9025 35.0946 17.4666V17.4755ZM42.4167 17.2265V19.4049H40.8919V12.354H43.6349C45.1909 12.354 46.2179 13.212 46.2179 14.8036C46.2179 16.3951 45.1909 17.2309 43.6349 17.2309H42.4167V17.2265ZM43.5104 13.6521H42.4167V15.9328H43.5104C44.2884 15.9328 44.6619 15.4705 44.6619 14.8036C44.6619 14.1145 44.2884 13.6521 43.5104 13.6521ZM50.1212 18.618C49.8056 19.2049 49.2276 19.4627 48.5207 19.4627C47.5383 19.4627 46.7247 18.8981 46.7247 17.8489C46.7247 16.7997 47.436 16.1907 48.7786 16.1907C49.2187 16.1907 49.6589 16.2351 50.0767 16.3151V16.0084C50.0767 15.4437 49.6811 15.1948 48.8897 15.1948C48.3029 15.1948 47.8183 15.3193 47.4137 15.5238H47.2448V14.3723C47.6494 14.1589 48.3741 13.9767 49.072 13.9767C50.7303 13.9767 51.5883 14.7325 51.5883 16.0439V19.4049H50.1212V18.6136V18.618ZM50.0767 17.7511V17.0753C49.8145 16.9953 49.4766 16.9731 49.2054 16.9731C48.583 16.9731 48.2673 17.2087 48.2673 17.6933C48.2673 18.1779 48.583 18.3691 49.0453 18.3691C49.5077 18.3691 49.9256 18.1423 50.0723 17.7511H50.0767ZM52.7175 16.7686C52.7175 15.0525 53.9267 13.9811 55.4961 13.9811C56.1407 13.9811 56.6342 14.1278 56.9721 14.3545V15.6838H56.8165C56.4875 15.4349 56.1274 15.3237 55.6651 15.3237C54.9093 15.3237 54.3002 15.8528 54.3002 16.7686C54.3002 17.6844 54.9093 18.1912 55.6651 18.1912C56.1274 18.1912 56.4875 18.0801 56.8165 17.8311H56.9721V19.1604C56.6342 19.3871 56.1363 19.5339 55.4961 19.5339C53.9267 19.5339 52.7175 18.4757 52.7175 16.7686ZM59.6884 16.8353V19.4093H58.1547V12.3584H59.6884V16.3773L60.0485 15.835L61.4579 14.1101H63.0805V14.2923L61.1155 16.5152L63.0805 19.236V19.4183H61.3556L60.0441 17.4755L59.684 16.8442L59.6884 16.8353ZM66.8413 18.618C66.526 19.2049 65.948 19.4627 65.2411 19.4627C64.2587 19.4627 63.4451 18.8981 63.4451 17.8489C63.4451 16.7997 64.1564 16.1907 65.499 16.1907C65.9391 16.1907 66.3793 16.2351 66.7973 16.3151V16.0084C66.7973 15.4437 66.4015 15.1948 65.6101 15.1948C65.0233 15.1948 64.5387 15.3193 64.1342 15.5238H63.9653V14.3723C64.3698 14.1589 65.0945 13.9767 65.7924 13.9767C67.4507 13.9767 68.3087 14.7325 68.3087 16.0439V19.4049H66.8413V18.6136V18.618ZM66.7973 17.7511V17.0753C66.5393 16.9953 66.197 16.9731 65.9303 16.9731C65.3079 16.9731 64.9922 17.2087 64.9922 17.6933C64.9922 18.1779 65.3079 18.3691 65.7702 18.3691C66.2325 18.3691 66.6505 18.1423 66.7973 17.7511ZM71.176 15.177C71.4607 14.3857 72.0567 14.0478 72.6653 14.0478C72.87 14.0478 73.0387 14.1056 73.1053 14.1367V15.5905H72.9453C72.79 15.5105 72.63 15.466 72.4167 15.466C71.8073 15.466 71.3673 15.7461 71.2427 16.3463V19.4049H69.7093V14.1011H71.176V15.1726V15.177ZM77.5427 18.6625C77.1913 19.2137 76.64 19.5294 75.9507 19.5294C74.506 19.5294 73.6167 18.3646 73.6167 16.7641C73.6167 15.1637 74.5107 13.9767 75.9507 13.9767C76.5953 13.9767 77.1247 14.2567 77.476 14.7458V12.354H79.0093V19.4049H77.5427V18.6625ZM77.476 17.6799V15.8305C77.1913 15.426 76.8087 15.2303 76.3687 15.2303C75.6707 15.2303 75.1953 15.7727 75.1953 16.7641C75.1953 17.7555 75.6707 18.2757 76.3687 18.2757C76.8087 18.2757 77.1913 18.0845 77.476 17.6799Z" fill="black"/>
</g>
<defs>
<clipPath id="clip0_100_1717">
<rect width="79.3333" height="32" fill="white"/>
</clipPath>
</defs>
</svg>
