<svg width="53" height="32" viewBox="0 0 53 32" fill="none" xmlns="http://www.w3.org/2000/svg">
<path d="M4.46482 3.75586H0.725098V7.4876H4.46482V3.75586Z" fill="#0068B5"/>
<path d="M4.37164 23.1982V9.75859H0.831543V23.1982H4.37164ZM27.9013 23.331V20.0375C27.3823 20.0375 26.9431 20.0109 26.6237 19.9578C26.251 19.9047 25.9715 19.7719 25.7852 19.5859C25.5989 19.4 25.4791 19.1344 25.4126 18.7891C25.3593 18.4571 25.3327 18.0189 25.3327 17.4877V12.7865H27.9013V9.75859H25.3327V4.51291H21.7793V17.5142C21.7793 18.6165 21.8725 19.5461 22.0588 20.2898C22.2451 21.0202 22.5645 21.6178 23.0037 22.0693C23.4429 22.5209 24.0285 22.8396 24.7338 23.0388C25.4525 23.238 26.3575 23.331 27.4355 23.331H27.9013ZM48.2369 23.1982V3.47705H44.6835V23.1982H48.2369ZM18.359 11.0733C17.3742 10.0109 15.9901 9.47971 14.2333 9.47971C13.3816 9.47971 12.6097 9.65235 11.9043 9.99764C11.2123 10.3429 10.6134 10.821 10.1476 11.4319L9.94796 11.6842V11.4585V9.75859H6.44779V23.1982H9.97457V16.0401V16.5315C9.97457 16.4518 9.97457 16.3721 9.97457 16.2925C10.0145 15.0308 10.3206 14.1012 10.9062 13.5036C11.5317 12.8662 12.2903 12.5474 13.1553 12.5474C14.1801 12.5474 14.9653 12.8662 15.4843 13.4771C15.9901 14.0879 16.2562 14.9512 16.2562 16.0534V16.08V23.1849H19.8363V15.562C19.8496 13.6497 19.3438 12.1357 18.359 11.0733ZM42.8469 16.4518C42.8469 15.4824 42.6739 14.5793 42.3412 13.7294C41.9951 12.8927 41.516 12.149 40.9171 11.5116C40.3049 10.8741 39.573 10.3828 38.7212 10.0242C37.8695 9.66563 36.9245 9.49299 35.8998 9.49299C34.9283 9.49299 34.01 9.67891 33.1582 10.0375C32.3065 10.4093 31.5612 10.9007 30.9357 11.5249C30.3102 12.149 29.8044 12.8927 29.4451 13.7427C29.0725 14.5926 28.8994 15.5089 28.8994 16.4784C28.8994 17.4478 29.0725 18.3642 29.4185 19.2141C29.7645 20.064 30.2569 20.8077 30.8691 21.4319C31.4813 22.0561 32.2399 22.5607 33.1183 22.9193C33.9967 23.2911 34.9682 23.4771 36.0063 23.4771C39.014 23.4771 40.8772 22.1092 41.9951 20.8343L39.4399 18.8954C38.9075 19.5328 37.6299 20.396 36.0329 20.396C35.0347 20.396 34.2096 20.1703 33.5841 19.7055C32.9586 19.2539 32.5327 18.6165 32.3065 17.833L32.2665 17.7134H42.8469V16.4518ZM32.2931 15.2168C32.2931 14.234 33.4244 12.5209 35.8599 12.5076C38.2953 12.5076 39.4399 14.2207 39.4399 15.2035L32.2931 15.2168Z" fill="black"/>
<path d="M52.2833 21.4453C52.2167 21.2859 52.1236 21.1531 52.0038 21.0336C51.884 20.914 51.7509 20.8211 51.5912 20.7547C51.4315 20.6883 51.2585 20.6484 51.0855 20.6484C50.8992 20.6484 50.7395 20.6883 50.5798 20.7547C50.4201 20.8211 50.287 20.914 50.1672 21.0336C50.0474 21.1531 49.9543 21.2859 49.8877 21.4453C49.8212 21.6046 49.7812 21.7773 49.7812 21.9499C49.7812 22.1358 49.8212 22.2952 49.8877 22.4545C49.9543 22.6139 50.0474 22.7467 50.1672 22.8662C50.287 22.9858 50.4201 23.0787 50.5798 23.1451C50.7395 23.2115 50.9125 23.2514 51.0855 23.2514C51.2718 23.2514 51.4315 23.2115 51.5912 23.1451C51.7509 23.0787 51.884 22.9858 52.0038 22.8662C52.1236 22.7467 52.2167 22.6139 52.2833 22.4545C52.3498 22.2952 52.3897 22.1225 52.3897 21.9499C52.3897 21.7773 52.3498 21.6046 52.2833 21.4453ZM52.0703 22.3749C52.0171 22.5077 51.9372 22.6272 51.8441 22.7202C51.7509 22.8131 51.6312 22.8928 51.4981 22.9459C51.365 22.999 51.2319 23.0256 51.0722 23.0256C50.9258 23.0256 50.7794 22.999 50.6463 22.9459C50.5132 22.8928 50.3935 22.8131 50.3003 22.7202C50.2071 22.6272 50.1273 22.5077 50.074 22.3749C50.0208 22.2421 49.9942 22.1093 49.9942 21.9499C49.9942 21.8038 50.0208 21.6577 50.074 21.5249C50.1273 21.3921 50.2071 21.2726 50.3003 21.1796C50.3935 21.0867 50.5132 21.007 50.6463 20.9539C50.7794 20.9008 50.9125 20.8742 51.0722 20.8742C51.2186 20.8742 51.365 20.9008 51.4981 20.9539C51.6312 21.007 51.7509 21.0867 51.8441 21.1796C51.9372 21.2726 52.0171 21.3921 52.0703 21.5249C52.1236 21.6577 52.1502 21.7905 52.1502 21.9499C52.1635 22.1093 52.1236 22.2421 52.0703 22.3749ZM51.3251 22.0561C51.4315 22.0429 51.5114 22.003 51.5779 21.9366C51.6445 21.8702 51.6844 21.7773 51.6844 21.6445C51.6844 21.4984 51.6445 21.3921 51.5513 21.3124C51.4714 21.2328 51.3251 21.1929 51.152 21.1929H50.5665V22.6936H50.8459V22.0827H51.0456L51.4182 22.6936H51.711L51.3251 22.0561ZM51.1787 21.8437C51.1387 21.8437 51.0988 21.8437 51.0456 21.8437H50.8459V21.4187H51.0456C51.0855 21.4187 51.1254 21.4187 51.1787 21.4187C51.2186 21.4187 51.2585 21.432 51.2984 21.4453C51.3384 21.4585 51.365 21.4851 51.3783 21.5117C51.3916 21.5382 51.4049 21.5781 51.4049 21.6312C51.4049 21.6843 51.3916 21.7241 51.3783 21.7507C51.3517 21.7773 51.3251 21.8038 51.2984 21.8171C51.2585 21.8304 51.2186 21.8437 51.1787 21.8437Z" fill="black"/>
</svg>
