<svg width="87" height="32" viewBox="0 0 87 32" fill="none" xmlns="http://www.w3.org/2000/svg">
<g clip-path="url(#clip0_94_1951)">
<mask id="mask0_94_1951" style="mask-type:luminance" maskUnits="userSpaceOnUse" x="-2" y="0" width="143" height="32">
<path d="M140.037 0H-2V32H140.037V0Z" fill="white"/>
</mask>
<g mask="url(#mask0_94_1951)">
<path d="M71.9142 9.8017V7.40869H69.2397V9.8017H71.9142Z" fill="#1A1A1A"/>
<path d="M71.7029 22.8928V10.9277H69.3804V22.8928H71.7029Z" fill="#1A1A1A"/>
<path fill-rule="evenodd" clip-rule="evenodd" d="M65.003 22.9633C62.9148 22.9633 61.2163 21.2641 61.2163 19.1751V7.40869H63.5723V10.9422H67.9716V13.2992H64.098C63.9591 13.2993 63.8258 13.3546 63.7274 13.453C63.6292 13.5513 63.5739 13.6847 63.5737 13.8238V20.0804C63.574 20.2195 63.6293 20.3527 63.7275 20.4511C63.8258 20.5494 63.9591 20.6048 64.098 20.605H67.973V22.9619L65.003 22.9633Z" fill="#1A1A1A"/>
<path fill-rule="evenodd" clip-rule="evenodd" d="M25.3208 22.8928V10.9277H27.5844V13.1909L27.7021 13.2166C27.9828 12.6089 28.3173 11.9881 28.8611 11.5646C29.419 11.13 30.1468 10.9277 31.1516 10.9277H32.3591V13.3501H31.2184C28.8727 13.3501 27.6832 14.5551 27.6832 16.9316V22.8928H25.3208Z" fill="#1A1A1A"/>
<path d="M8.92224 22.9631L4.04944 17.8559C4.02679 17.8316 3.99939 17.8123 3.96895 17.7991C3.93851 17.7859 3.90568 17.7791 3.87251 17.7791C3.84007 17.779 3.80793 17.7851 3.77792 17.7975C3.74791 17.8098 3.72065 17.828 3.69772 17.8509C3.67478 17.8739 3.65663 17.9012 3.64432 17.9312C3.63201 17.9612 3.62578 17.9934 3.626 18.0258V22.9631H1.25V7.40869H3.62463V15.2808C3.62455 15.3302 3.63926 15.3784 3.66685 15.4193C3.69445 15.4602 3.73366 15.4919 3.77943 15.5102C3.82521 15.5286 3.87543 15.5328 3.92361 15.5223C3.9718 15.5118 4.01573 15.487 4.04971 15.4513L8.33392 10.9515H11.3593L6.21291 16.3431C6.13618 16.4233 6.09336 16.5301 6.09336 16.6412C6.09336 16.7522 6.13618 16.8589 6.21291 16.9391L11.9482 22.9633L8.92224 22.9631Z" fill="#1A1A1A"/>
<path fill-rule="evenodd" clip-rule="evenodd" d="M33.6968 26.3412V10.9517H36.0552V12.7307L36.167 12.574C36.4891 12.1236 36.9022 11.7455 37.3796 11.4638C38.1343 11.0144 39.0513 10.7866 40.103 10.7866C41.6807 10.7866 43.1534 11.4258 44.2501 12.5863C45.3421 13.7423 45.9434 15.2869 45.9434 16.9363C45.9434 18.5922 45.3589 20.1371 44.2972 21.2865C43.2254 22.447 41.7698 23.086 40.1981 23.086C39.1672 23.086 38.2632 22.8823 37.5112 22.4801C36.9839 22.2027 36.5247 21.8126 36.1661 21.3376L36.0565 21.1895V26.3412H33.6968ZM39.8444 12.9737C38.0266 12.9737 35.9042 14.0126 35.9042 16.9363C35.9042 19.902 38.0266 20.9551 39.8444 20.9551C41.907 20.9551 43.5852 19.1526 43.5852 16.9363C43.5852 14.7513 41.9068 12.9737 39.8444 12.9737Z" fill="#1A1A1A"/>
<path fill-rule="evenodd" clip-rule="evenodd" d="M78.8819 23.1036C77.3038 23.1036 75.8309 22.4635 74.7343 21.301C73.6421 20.1438 73.0405 18.5966 73.0405 16.9451C73.0405 15.2868 73.6253 13.7397 74.6872 12.5884C75.7588 11.4264 77.2147 10.7866 78.7868 10.7866C79.8179 10.7866 80.7221 10.9906 81.4742 11.393C82.0014 11.6708 82.4608 12.0616 82.819 12.5375L82.9287 12.6859V10.952H85.2871V22.9505H82.9287V21.1567L82.8168 21.3138C82.4952 21.7647 82.0828 22.1433 81.606 22.4255C80.8506 22.8756 79.9341 23.1036 78.8819 23.1036ZM79.1406 12.921C77.0777 12.921 75.3992 14.7264 75.3992 16.9456C75.3992 19.1338 77.0777 20.9139 79.1406 20.9139C80.9586 20.9139 83.0814 19.8735 83.0814 16.9456C83.0814 13.9751 80.9586 12.921 79.1406 12.921Z" fill="#1A1A1A"/>
<path fill-rule="evenodd" clip-rule="evenodd" d="M52.9811 23.1036C51.403 23.1036 49.93 22.4635 48.8334 21.301C47.7412 20.1438 47.1396 18.5966 47.1396 16.9451C47.1396 15.2868 47.7246 13.7397 48.7863 12.5884C49.8579 11.4264 51.3139 10.7866 52.8857 10.7866C53.9171 10.7866 54.8212 10.9906 55.5733 11.393C56.1006 11.6708 56.5599 12.0616 56.9182 12.5375L57.0278 12.6859V10.952H59.3863V22.9505H57.0292V21.1567L56.9174 21.3138C56.5952 21.7649 56.1821 22.1437 55.7046 22.4257C54.9497 22.8756 54.0335 23.1036 52.9811 23.1036ZM53.2398 12.921C51.1768 12.921 49.4984 14.7264 49.4984 16.9456C49.4984 19.1338 51.1768 20.9139 53.2398 20.9139C55.0575 20.9139 57.1805 19.8735 57.1805 16.9456C57.1805 13.9751 55.0575 12.921 53.2398 12.921Z" fill="#1A1A1A"/>
<path fill-rule="evenodd" clip-rule="evenodd" d="M16.7344 23.1036C15.1564 23.1036 13.6833 22.4635 12.5863 21.301C11.4943 20.1438 10.8926 18.5966 10.8926 16.9451C10.8926 15.2868 11.4773 13.7397 12.5391 12.5884C13.6112 11.4264 15.0672 10.7866 16.6393 10.7866C17.6705 10.7866 18.5748 10.9906 19.3269 11.393C19.8544 11.6708 20.3138 12.0616 20.6722 12.5375L20.7818 12.6859V10.952H23.1392V22.9505H20.7818V21.1567L20.6701 21.3138C20.3477 21.7649 19.9346 22.1436 19.4571 22.4257C18.7036 22.8756 17.787 23.1036 16.7344 23.1036ZM16.994 12.921C14.9305 12.921 13.2519 14.7264 13.2519 16.9456C13.2519 19.1338 14.9305 20.9139 16.994 20.9139C18.8118 20.9139 20.9349 19.8735 20.9349 16.9456C20.9343 13.9751 18.8113 12.921 16.994 12.921Z" fill="#1A1A1A"/>
</g>
</g>
<defs>
<clipPath id="clip0_94_1951">
<rect width="87" height="32" fill="white"/>
</clipPath>
</defs>
</svg>
