<svg width="62" height="32" viewBox="0 0 62 32" fill="none" xmlns="http://www.w3.org/2000/svg">
<path fill-rule="evenodd" clip-rule="evenodd" d="M25.6422 8.14744C25.3774 8.14744 25.26 8.30468 25.1617 8.52968C18.9801 22.7269 18.4614 23.8493 18.4614 23.8493C21.9644 23.8493 21.9644 23.8493 21.9644 23.8493C22.6935 22.0681 22.6935 22.0681 22.6935 22.0681C27.9713 22.0681 27.9713 22.0681 27.9713 22.0681C28.703 23.8493 28.703 23.8493 28.703 23.8493C32.8231 23.8493 32.8231 23.8493 32.8231 23.8493C32.8231 23.8493 32.4709 23.12 26.1228 8.52968C26.0245 8.30468 25.9071 8.14744 25.6422 8.14744ZM23.8075 19.3518C25.3283 15.6351 25.3283 15.6351 25.3283 15.6351C26.8545 19.3518 26.8545 19.3518 26.8545 19.3518H23.8075ZM43.1411 16.7168C44.3452 16.0011 45.2571 14.7513 45.2571 12.9594C45.2571 11.5524 44.692 10.3921 43.709 9.6087C42.7125 8.81164 41.5603 8.38055 39.2039 8.38055C34.1637 8.38055 34.1637 8.38055 34.1637 8.38055C34.1637 23.8493 34.1637 23.8493 34.1637 23.8493C37.8879 23.8493 37.8879 23.8493 37.8879 23.8493C37.8879 18.0912 37.8879 18.0912 37.8879 18.0912C39.0428 18.0912 39.0428 18.0912 39.0428 18.0912C40.2988 18.0912 40.9323 18.5656 41.4592 19.8208C41.9043 20.8834 42.2182 22.1441 42.6279 23.8493C46.7807 23.8493 46.7807 23.8493 46.7807 23.8493C46.1909 22.0953 45.896 21.2657 45.4538 20.0295C44.8476 18.3379 44.1131 17.2969 43.1411 16.7168ZM40.7603 14.8191C40.3098 15.1634 39.7282 15.2718 38.6825 15.2718C37.8879 15.2718 37.8879 15.2718 37.8879 15.2718C37.8879 15.2718 37.8797 11.1485 37.8879 11.1485C38.6825 11.1485 38.6825 11.1485 38.6825 11.1485C39.7746 11.1485 40.3179 11.2678 40.7576 11.5985C41.2599 11.978 41.4838 12.5473 41.4838 13.2061C41.4838 13.9245 41.2326 14.4531 40.7603 14.8191ZM10.1065 14.9357C3.78022 8.65169 3.78023 8.65169 3.78023 8.65169C3.58911 8.46463 3.39799 8.33181 3.09766 8.33181C3.09766 23.8493 3.09766 23.8493 3.09766 23.8493C6.34954 23.8493 6.34954 23.8493 6.34954 23.8493C6.34954 16.4294 6.34954 16.4294 6.34954 16.4294C10.1065 20.1597 10.1065 20.1597 10.1065 20.1597C13.8662 16.4294 13.8662 16.4294 13.8662 16.4294C13.8662 23.8493 13.8662 23.8493 13.8662 23.8493C17.1181 23.8493 17.1181 23.8493 17.1181 23.8493C17.1181 8.33181 17.1181 8.33181 17.1181 8.33181C16.8177 8.33181 16.6266 8.46463 16.4355 8.65169L10.1065 14.9357ZM58.3766 16.1312C56.7165 14.5643 53.7049 14.2958 52.5145 13.3742C52.0476 13.0136 51.881 12.4822 52.0339 11.9753C52.2223 11.3464 52.853 10.9343 53.7786 10.9343C55.0537 10.9343 56.1977 11.5117 56.9895 12.447C59.1164 10.2376 59.1164 10.2376 59.1164 10.2376C57.8632 8.91468 55.8619 8.11768 53.754 8.11768C51.2967 8.11768 49.4428 9.29692 48.6155 11.1783C47.9738 12.6395 48.1951 14.163 48.9841 15.2583C50.5104 17.3782 53.7322 17.4433 55.1274 18.5304C55.6243 18.9181 55.9029 19.5443 55.6053 20.2193C55.3486 20.8103 54.7015 21.2115 53.6421 21.2386C52.1732 21.2738 50.8626 20.5907 49.8988 19.3952C47.7691 21.6073 47.7691 21.6073 47.7691 21.6073C49.178 23.3016 51.2749 24.1177 53.8086 24.1177C56.2715 24.1177 58.4339 23.1661 59.3158 21.1383C60.0885 19.3654 59.81 17.4813 58.3766 16.1312Z" fill="#0000A0"/>
</svg>
