<svg width="43" height="32" viewBox="0 0 43 32" fill="none" xmlns="http://www.w3.org/2000/svg">
<g clip-path="url(#clip0_94_1970)">
<path d="M1.70492 28.0382C2.54302 28.0382 3.15254 27.962 4.2954 27.962C5.1335 27.962 5.97159 28.0382 6.7335 28.1144C6.65731 28.5716 6.58112 28.9525 6.42873 29.4097C6.27635 29.7906 6.12397 30.2478 5.8954 30.6287C5.05731 30.7049 4.14302 30.7049 3.38112 30.7049C3.00016 30.7049 2.54302 30.7049 1.9335 30.7049L1.47635 31.9239H0.333496L1.70492 28.0382ZM4.98112 29.943C5.05731 29.7144 5.1335 29.562 5.20969 29.3335C5.28588 29.1049 5.36207 28.9525 5.36207 28.7239C5.05731 28.7239 4.37159 28.6477 3.99064 28.6477C3.45731 28.6477 3.00016 28.6477 2.54302 28.6477L2.16207 29.7906C2.61921 29.7906 3.07635 29.7906 3.60969 29.8668C4.14302 30.0192 4.52397 30.0192 4.98112 29.943ZM7.87635 28.0382H9.01921L8.79064 28.7239C8.56207 29.4858 8.25731 30.3239 8.02874 31.0858C8.40969 31.162 8.86683 31.162 9.32397 31.162C9.78112 31.162 10.2383 31.162 10.6192 31.0858C10.6954 30.9335 10.7716 30.7811 10.8478 30.6287H11.9906C11.8383 31.0097 11.6859 31.3906 11.4573 31.8477C10.543 32.0001 9.78112 32.0001 8.94302 32.0001C8.10493 32.0001 7.41921 32.0001 6.58112 31.8477C6.88588 30.8573 7.19064 29.7906 7.57159 28.7239L7.87635 28.0382ZM15.4192 28.1144C15.4954 28.1144 15.9525 28.0382 16.6383 28.0382H16.7906C17.2478 28.0382 17.6287 28.0382 18.1621 28.1144L18.6192 31.9239H17.4764L17.4002 31.0858H14.124L13.4383 31.9239H12.2954L15.1144 28.5716L15.4192 28.1144ZM15.9525 28.8763L14.7335 30.4001H17.324L17.1716 28.8763C17.0192 28.8763 16.7906 28.8763 16.6383 28.8763C16.3335 28.8001 16.1049 28.8763 15.9525 28.8763ZM20.7525 28.0382H23.4192C24.2573 28.0382 25.2478 28.0382 26.0097 28.1906C25.9335 28.5716 25.8573 28.9525 25.7049 29.3335C25.5525 29.7906 25.4002 30.2477 25.0954 30.7049C24.7145 30.7049 24.2573 30.7811 23.8002 30.7811L24.8668 31.9239H23.4192L21.8192 30.1716V30.0954H22.4287C23.1145 30.0954 23.6478 30.0954 24.2573 30.0954C24.3335 29.8668 24.4097 29.7144 24.4859 29.4858C24.5621 29.2573 24.6383 29.1049 24.6383 28.8763C24.1049 28.8763 23.6478 28.8763 23.0383 28.8763H21.5144L20.3716 32.0001H19.2287L20.7525 28.0382ZM27.5335 28.0382H28.6764L27.3049 31.9239H26.1621L27.5335 28.0382ZM30.0478 28.1144H31.1906L30.9621 28.8001C30.6573 29.562 30.4287 30.4001 30.2002 31.162C30.7335 31.2382 31.1906 31.2382 31.724 31.2382C32.2573 31.2382 32.7906 31.2382 33.324 31.162C33.6287 30.4001 33.9335 29.562 34.2383 28.8001L34.4668 28.1144H35.6097L35.3811 28.8001C35.0002 29.7906 34.543 30.8573 34.1621 31.8477C33.2478 32.0001 32.3335 32.0763 31.4192 32.0763C30.5049 32.0763 29.6668 32.0001 28.8287 31.9239C29.0573 30.9335 29.4383 29.8668 29.743 28.8763L30.0478 28.1144ZM36.7525 28.1144C37.5145 28.1144 38.2764 28.0382 39.4954 28.0382C39.5716 28.0382 39.5716 28.0382 39.6478 28.0382H39.9525C41.0192 28.0382 42.0097 28.1144 43.0764 28.1906C42.6954 29.4097 42.2383 30.7811 41.8573 31.9239H40.7145C41.0192 31.0097 41.4764 29.7906 41.7049 28.8763C41.2478 28.8763 40.7145 28.8001 40.2573 28.8001L39.1906 31.9239H38.0478L39.1145 28.8001C38.5811 28.8001 38.124 28.8001 37.5906 28.8763C37.2097 29.7906 36.7525 30.9335 36.4478 31.9239H35.3049C35.6097 31.0097 36.0668 29.8668 36.4478 28.8763C36.524 28.7239 36.7525 28.1144 36.7525 28.1144ZM39.4192 6.01918C39.5716 6.24775 39.5716 6.40013 39.5716 6.47632V6.55251C39.4954 6.85727 39.1145 7.16204 38.6573 7.39061C37.2097 8.15251 35.3049 8.91442 33.0192 9.67632C33.0192 8.91442 32.3335 8.38108 30.6573 7.84775C19.9906 4.2668 11.2287 7.4668 8.02874 9.29537C9.01921 6.47632 10.3144 3.4287 11.1525 2.97156C15.4954 0.533465 21.3621 -0.457012 27.3811 0.304893C32.943 0.990607 37.5906 3.20013 39.4192 6.01918ZM38.9621 8.53346C38.124 11.2001 37.0573 14.3239 36.4478 15.0097C34.4668 17.2192 15.4954 21.562 5.05731 16.4573C11.0764 15.6192 30.5049 12.8763 38.9621 8.53346Z" fill="black"/>
<path d="M20.5242 7.31445L18.4671 13.1049C18.0861 13.1811 17.7051 13.2573 17.3242 13.3335C15.3432 13.7145 13.4385 14.0192 11.6861 14.2478C9.85753 13.4859 7.49562 12.0383 7.41943 11.2002C7.7242 10.6668 10.1623 9.06683 14.2766 8.07636C15.9528 7.69541 18.0861 7.31445 20.5242 7.31445ZM16.1813 19.8859L14.8099 23.7716H9.17181L10.6956 19.3525C12.6004 19.6573 14.429 19.8097 16.1813 19.8859Z" fill="black"/>
</g>
<defs>
<clipPath id="clip0_94_1970">
<rect width="42.6667" height="32" fill="white" transform="translate(0.333496)"/>
</clipPath>
</defs>
</svg>
