<svg width="55" height="32" viewBox="0 0 55 32" fill="none" xmlns="http://www.w3.org/2000/svg">
<path d="M17.9277 12.9991C18.7672 14.6639 19.5258 16.1668 19.6123 16.339L19.7705 16.6505L19.834 16.5001C19.888 16.3739 20.0616 15.8277 20.8906 13.1593L21.8828 9.96985H25.7881L25.752 10.0714C25.7311 10.1283 24.8464 12.5756 23.7861 15.5109C22.7258 18.4463 21.8341 20.9157 21.8057 20.9962C21.4536 21.9876 21.0284 22.8682 20.5713 23.5548C19.4012 25.3118 17.8309 26.2088 15.6025 26.3907C15.4011 26.4068 15.0536 26.4229 14.9189 26.423H14.8262V22.8146H14.9092C15.1563 22.8146 15.6091 22.7761 15.8799 22.7335C16.9144 22.5705 17.5763 22.1254 17.8877 21.382C17.933 21.2741 18.0056 21.0575 18.0088 21.0226C18.0098 21.0103 16.8067 18.5887 15.2588 15.4884C13.7516 12.4695 12.5175 9.99611 12.5068 9.97278C12.5303 9.9718 13.398 9.96985 14.4551 9.96985H16.4023L17.9277 12.9991Z" fill="#F91F2B"/>
<path fill-rule="evenodd" clip-rule="evenodd" d="M53.416 6.87415C53.435 6.89118 53.2577 7.26948 53.1299 7.48352C52.7058 8.1947 52.0725 8.75077 51.0947 9.27161C50.6687 9.49794 50.2379 9.68629 49.1719 10.1134C48.1686 10.5159 47.7134 10.723 47.2627 10.9816C46.5896 11.367 46.0974 11.8099 45.7773 12.3175C45.714 12.4186 45.5702 12.6932 45.5488 12.7531C45.5391 12.7824 45.5401 12.7845 45.5811 12.8156L45.625 12.8478L45.7539 12.7452C45.9918 12.5549 46.2796 12.3708 46.5596 12.2306C47.0936 11.9626 47.6492 11.7997 48.2686 11.7296C48.7172 11.6776 49.2419 11.6867 49.6982 11.7531C50.71 11.9009 51.6892 12.3463 52.4854 13.0206C52.6407 13.1513 52.9237 13.4305 53.0557 13.5822C53.7617 14.3949 54.1859 15.3711 54.2988 16.4386C54.3449 16.8829 54.332 17.522 54.2656 18.0353C54.1442 18.9664 53.8433 19.8038 53.3691 20.5284C53.1571 20.8514 52.9594 21.0921 52.6709 21.382C52.3802 21.6725 52.1232 21.884 51.7949 22.1027C50.8624 22.724 49.7065 23.1051 48.5146 23.1847C46.7197 23.3041 44.9075 22.7551 43.5771 21.6876C42.1893 20.5746 41.3627 18.9646 41.1875 17.0284C41.1296 16.3966 41.1451 15.4804 41.2256 14.7169C41.366 13.3833 41.705 12.2661 42.2617 11.3019C42.4292 11.0112 42.6714 10.6621 42.8994 10.38C43.2308 9.97081 43.6648 9.54357 44.1172 9.18079C44.8317 8.60775 45.765 8.04829 46.7773 7.58704C46.9269 7.51868 47.4809 7.24926 48.1641 6.91126C48.7358 6.62802 49.0065 6.4578 49.3994 6.13196C49.6292 5.94252 49.8394 5.72265 50.0381 5.46692C50.1215 5.36079 50.2847 5.12454 50.332 5.04309C50.3462 5.01847 50.3616 4.99823 50.3652 5.00012C50.3856 5.01043 53.3931 6.85772 53.416 6.87415ZM47.5254 14.5245C47.0111 14.5748 46.6165 14.6978 46.2285 14.9298C45.9494 15.0965 45.6565 15.353 45.4805 15.5812C45.2741 15.8483 45.1178 16.1977 45.0449 16.5529C44.8972 17.2813 45.0552 18.0668 45.4639 18.6437C45.6685 18.9315 45.9941 19.2248 46.3164 19.4142C46.4433 19.4889 46.5686 19.5498 46.7148 19.6075C47.6799 19.9893 48.8577 19.8387 49.6689 19.2306C50.2248 18.8139 50.5552 18.2534 50.6455 17.5734C50.6661 17.4199 50.6684 16.9781 50.6494 16.8341C50.6098 16.5244 50.5343 16.2686 50.4072 16.0148C49.9965 15.1946 49.0861 14.6204 48.0488 14.5284C47.9446 14.519 47.6067 14.5161 47.5254 14.5245Z" fill="#F91F2B"/>
<path d="M11.8438 22.5929H8.18945L8.18457 13.381L3.66406 13.3761V22.5929H0V9.97571H11.8438V22.5929Z" fill="#F91F2B"/>
<path d="M30.0449 9.97571L31.6113 12.424C32.4677 13.7629 33.1715 14.8593 33.1826 14.8722C33.1977 14.853 33.9 13.759 34.7539 12.424L36.3203 9.97571H39.876V22.5929H36.3633L36.3584 15.8087L34.7734 18.1251C33.2218 20.3919 33.187 20.4409 33.1709 20.422C33.1518 20.3966 32.4403 19.3604 31.5811 18.1056L30.0059 15.8077L30.002 22.5929H26.4893V9.97571H30.0449Z" fill="#F91F2B"/>
</svg>
