<svg width="158" height="32" viewBox="0 0 158 32" fill="none" xmlns="http://www.w3.org/2000/svg">
<g clip-path="url(#clip0_94_1996)">
<path d="M64.3579 9C70.1945 9.0001 73.8169 11.2573 73.8169 15.9902C73.8167 20.7231 70.1944 22.994 64.3579 22.9941C58.5356 22.9941 54.9128 20.7378 54.9126 15.9902C54.9126 11.2424 58.5502 9 64.3579 9ZM47.4614 9.32324C51.7583 9.32324 53.5629 11.3302 53.563 14.1436C53.563 15.7702 52.4921 17.4997 50.6147 18.3203L54.3696 22.6426H48.7671L45.5405 18.877H42.6509V22.6426H38.1636V9.32324H47.4614ZM89.4058 11.6963L81.4565 19.2139H89.4497V22.6426H74.564V20.2832L82.6011 12.7373H74.6812V9.32324H89.4058V11.6963ZM104.878 12.6787H95.7271V14.6416H103.544V17.3096H95.7271V19.3457H105.202V22.6426H91.3423V9.32324H104.878V12.6787ZM121.937 12.7373H116.409V22.6426H111.862V12.7373H106.333V9.32324H121.937V12.7373ZM128.038 14.1875L133.551 9.32324H139.389L132.979 14.7598L139.169 22.6426H133.566L129.724 17.5293L128.038 18.9648V22.6426H123.549V9.32324H128.038V14.1875ZM158 22.6426H153.029L151.958 20.0352H145.681L144.61 22.6426H139.653L145.872 9.32324H151.796L158 22.6426ZM64.3579 12.4727C61.454 12.4727 59.6792 13.4404 59.6792 15.9756C59.6794 18.4957 61.4541 19.4922 64.3579 19.4922C67.2465 19.4921 69.0501 18.5102 69.0503 15.9756C69.0503 13.4405 67.2467 12.4727 64.3579 12.4727ZM146.781 17.3672H150.873L148.834 12.3857L146.781 17.3672ZM42.6509 15.917H46.9927C48.5909 15.9169 48.9722 14.7591 48.9722 14.1289C48.9721 13.1912 48.4295 12.459 47.0659 12.459H42.6509V15.917Z" fill="#221F1F"/>
<path d="M26.6558 15.0519C26.6265 22.2298 20.6231 28.0179 13.2693 27.9892C5.91528 27.9607 -0.0293669 22.1153 0.000109144 14.9374C0.029395 7.75953 6.0328 1.97139 13.3866 2.00011C20.755 2.02863 26.685 7.8742 26.6558 15.0519Z" fill="#221F1F"/>
<path d="M18.1284 21.2928C16.7193 23.757 14.9726 25.7772 13.0203 25.7342C11.8019 25.7055 10.6424 25.2614 9.58549 24.5593C9.92322 23.9576 12.0516 20.949 18.1284 21.2928ZM26.3041 14.9172C26.2748 21.8945 20.4329 27.5395 13.2698 27.4965C6.10674 27.4678 0.353027 21.7798 0.353027 14.8026C0.353027 10.2753 2.67212 7.023 4.87389 5.27517C7.57465 3.14034 9.40939 4.77369 10.0552 6.02024C9.9818 5.49006 9.76177 3.97137 9.15989 2.88247C10.481 2.43843 11.9048 2.19483 13.3873 2.20909C20.5502 2.25207 26.3334 7.92573 26.3041 14.9172ZM12.6386 7.63914C14.5175 6.39259 17.7614 5.70495 19.4786 8.31253C18.4365 2.35248 13.9303 5.77664 12.6386 7.63914ZM10.0259 13.2696C10.4222 12.8399 10.8773 12.4101 11.4056 12.0233C13.7542 10.261 16.3229 9.81676 17.1595 11.0489C17.4824 11.5218 17.497 12.1807 17.2475 12.8971C18.0843 11.5503 18.3484 10.304 17.8348 9.61632C16.9688 8.46999 14.2826 9.25804 11.8314 11.3784C11.112 11.9658 10.5103 12.625 10.0259 13.2696ZM5.93065 14.3298C7.11958 14.5447 8.4112 13.069 8.8077 11.0061C9.20382 8.94293 8.57284 7.10896 7.38372 6.8798C6.19479 6.66491 4.90317 8.14062 4.50686 10.2037C4.11055 12.2524 4.74172 14.1007 5.93065 14.3298ZM22.4583 11.8369C11.0827 19.2727 3.22989 15.5047 3.22989 15.5047C3.11236 18.0835 7.64806 26.0063 13.0496 26.1067C18.4659 26.2069 22.4583 11.8369 22.4583 11.8369ZM4.82977 10.2465C5.19679 8.3555 6.31232 6.98002 7.32515 7.18065C8.33779 7.36682 8.86627 9.05741 8.51408 10.9486C8.14706 12.8399 7.03153 14.2151 6.0187 14.0147C4.99122 13.8283 4.46294 12.1378 4.82977 10.2465ZM6.9876 11.8514C7.44249 11.9516 7.94168 11.4071 8.11777 10.6478C8.29387 9.88845 8.05901 9.18654 7.60394 9.10058C7.29568 9.02889 6.97277 9.25804 6.73791 9.64484C6.94348 9.74525 7.04617 10.0031 6.94348 10.218C6.85544 10.4186 6.64987 10.5189 6.44448 10.4759C6.35644 11.1493 6.57646 11.751 6.9876 11.8514Z" fill="#05BC52"/>
</g>
<defs>
<clipPath id="clip0_94_1996">
<rect width="158" height="32" fill="white"/>
</clipPath>
</defs>
</svg>
