<svg width="124" height="32" viewBox="0 0 124 32" fill="none" xmlns="http://www.w3.org/2000/svg">
<path d="M7.81348 4.75391C8.48402 4.08336 9.60203 3.86047 10.4961 4.08398C12.5077 4.08398 14.0724 4.75414 16.084 5.20117C17.6486 5.6482 19.2137 6.09582 20.7783 6.31934H21.8955C22.566 6.31932 23.0131 6.09557 23.6836 5.87207H23.9072C23.9072 6.09538 23.907 6.09589 23.6836 6.31934C22.7896 6.9898 21.895 7.43666 21.001 7.66016C20.7774 7.66043 20.3308 7.88373 20.1074 7.88379C18.9899 8.33079 17.6488 8.33008 16.5312 8.33008C14.2961 8.10656 12.284 7.43652 10.0488 7.43652C8.03728 7.21312 6.02573 8.10734 4.9082 9.67188C4.68469 10.5658 4.23741 11.4596 4.2373 12.3535C4.2373 13.2474 5.57806 13.4714 6.02539 14.1416L6.69629 15.4834C6.91981 16.3773 7.36677 17.2712 8.03711 18.165C8.48414 18.6121 8.93199 19.2823 9.60254 19.5059C10.4964 20.1763 11.1663 20.8474 11.6133 21.7412C12.0603 22.6353 12.5079 23.3061 12.7314 24.2002C12.9549 24.6472 13.1787 25.0942 13.1787 25.7646V25.9883C13.402 26.435 13.4019 26.8819 13.625 27.1055V27.3291C13.625 27.5526 13.8485 28 13.625 28C13.1782 27.5531 12.9549 27.1061 12.7314 26.6592C12.5079 25.7651 11.8375 24.8706 11.167 23.9766C10.72 23.5295 10.2722 22.8591 9.8252 22.4121C8.03713 20.4006 5.35532 19.0595 3.34375 17.2715C3.34375 17.2715 3.3436 17.0477 3.12012 16.8242C2.89664 16.3773 2.6727 16.1539 2.44922 15.707C2.00219 14.813 1.3318 13.9184 0.884766 12.8008C0.884742 12.3538 0.661201 11.9069 0.661133 11.46V11.2363C0.661133 10.7893 -0.455703 10.5659 0.214844 9.67188C0.6619 9.22493 2.00203 8.77755 2.44922 7.88379V7.43652C2.44922 7.43652 2.4491 7.21289 2.22559 7.21289C2.00159 7.21353 1.33203 7.65932 1.33203 6.98926V6.31934C1.55555 5.8723 1.55566 5.42457 1.55566 4.97754C1.55584 4.75429 1.7795 4.75391 2.00293 4.75391C2.22653 4.75366 2.67305 4.53134 2.89648 4.53125C3.56695 4.53125 4.46112 4.53067 4.9082 4.97754C5.13172 5.42457 4.9082 5.8723 4.9082 6.31934C4.90791 6.76599 4.46141 6.98949 4.68457 7.21289H5.13184C6.02586 6.54236 6.91946 5.64793 7.81348 4.75391ZM20.1074 9.22461C20.3309 9.22461 20.5548 9.22484 20.7783 9.67188C21.0016 10.1187 20.7783 10.3422 20.7783 10.7891C19.8843 13.0242 18.3197 15.0363 17.2021 17.2715C16.0846 19.0596 15.4137 21.0713 14.7432 22.8594C14.5197 23.5297 14.2957 23.977 14.0723 24.6475H13.8496C13.6261 24.4239 13.626 24.2001 13.626 23.9766C13.8495 21.518 14.7437 19.5066 15.6377 17.2715C16.7553 14.8128 18.0963 12.5768 19.2139 10.1182C19.4372 9.89456 19.6608 9.44804 20.1074 9.22461ZM16.5312 9.22461C16.7548 9.22461 16.9786 9.22473 17.2021 9.44824C17.4254 9.67174 17.4253 10.1183 17.2021 10.3418C15.8611 13.2475 13.8491 15.7067 12.9551 18.8359L12.2842 20.8477C12.284 21.0707 12.0617 21.0707 12.0615 20.8477C11.838 20.6241 12.0615 20.1766 12.0615 19.9531C12.285 17.4946 12.9548 15.036 14.0723 13.0244C14.5193 11.9069 15.1907 11.013 15.6377 9.89551C15.8612 9.67201 16.0843 9.22469 16.5312 9.22461ZM12.9551 9.00098C13.402 9.00098 13.8487 9.00126 14.0723 9.22461C14.2958 9.89514 13.8495 10.3422 13.626 11.0127C12.5084 13.2478 11.1667 15.4828 10.4961 17.9414C10.4961 17.9414 10.496 18.165 10.2725 18.165H10.0498C9.82633 17.2711 10.049 16.1538 10.2725 15.2598C10.943 13.2482 11.6139 11.2362 12.7314 9.22461C12.955 9.22461 12.9551 9.00098 12.9551 9.00098ZM10.4961 8.77734C10.7196 8.55387 10.72 8.77727 10.9434 8.77734C11.1669 9.22438 10.9432 9.44848 10.7197 9.89551C9.60236 11.4601 9.15486 13.4718 8.48438 15.2598H8.26172C8.03823 15.2598 8.03809 15.036 8.03809 14.8125C8.03809 12.8009 8.70848 11.0127 9.60254 9.22461C9.82599 9.00114 10.0493 8.55423 10.4961 8.77734Z" fill="#F1C931"/>
<path d="M37.0472 22.64L33.6872 18.2H32.3672V22.64H28.4072V11H34.2872C38.6072 11 41.3672 12.2 41.3672 14.6C41.3672 16.28 39.8072 17.24 37.6472 17.84L41.4872 22.64H37.0472ZM34.0472 13.04H32.2472V16.28H34.1672C36.2072 16.28 37.2872 15.68 37.2872 14.72C37.4072 13.52 36.4472 13.04 34.0472 13.04ZM51.2072 18.2V22.64H47.2472V18.32L41.4872 11H45.8072L47.4872 13.4C48.2072 14.36 48.9272 15.56 49.1672 16.16C49.4072 15.56 50.1272 14.36 50.8472 13.4L52.5272 11H56.8472L51.2072 18.2ZM66.2072 22.64L65.1272 20.24H60.2072L59.1272 22.64H55.0472L60.6872 11H64.5272L70.1672 22.64H66.2072ZM63.6872 16.88C63.3272 16.04 62.8472 14.6 62.6072 14C62.4872 14.6 62.0072 15.8 61.6472 16.76L61.0472 18.2H64.2872L63.6872 16.88ZM81.0872 22.64L77.0072 17.48C76.4072 16.76 75.6872 15.8 75.3272 15.08C75.3272 15.8 75.4472 17 75.4472 17.72V22.64H71.8472V11H75.8072L79.6472 16.16C80.1272 16.88 80.9672 17.96 81.4472 18.56C81.4472 17.84 81.3272 16.52 81.3272 15.8V11H84.9272V22.64H81.0872ZM97.6472 22.64L96.5672 20.24H91.6472L90.5672 22.64H86.4872L92.1272 11H96.0872L101.727 22.64H97.6472ZM95.1272 16.88C94.7672 16.04 94.2872 14.6 94.0472 14C93.9272 14.6 93.4472 15.8 93.0872 16.76L92.4872 18.2H95.7272L95.1272 16.88ZM103.287 22.64V11H107.247V22.64H103.287ZM119.367 22.64L115.887 18.2H114.567V22.64H110.607V11H116.487C120.807 11 123.567 12.2 123.567 14.6C123.567 16.28 122.007 17.24 119.847 17.84L123.687 22.64H119.367ZM116.367 13.04H114.567V16.28H116.487C118.527 16.28 119.607 15.68 119.607 14.72C119.727 13.52 118.767 13.04 116.367 13.04Z" fill="black"/>
</svg>
