<svg width="43" height="32" viewBox="0 0 43 32" fill="none" xmlns="http://www.w3.org/2000/svg">
<g clip-path="url(#clip0_94_1979)">
<path d="M15.881 12.4971L15.8882 12.5097C16.3037 13.1785 17.019 13.5463 17.7505 13.5463C18.1472 13.5463 18.5483 13.4381 18.9091 13.2119C19.9368 12.5683 20.25 11.21 19.6083 10.1779L13.9253 1.04356C13.2836 0.0124067 11.9311 -0.301266 10.9044 0.343205C9.87762 0.987676 9.56529 2.34602 10.207 3.37717L15.881 12.4962" fill="#00B4ED"/>
<path d="M24.5124 3.10323C24.5124 1.39515 23.1329 0.00976562 21.4313 0.00976562C19.7296 0.00976562 18.3511 1.39515 18.3511 3.10323C18.3511 3.70623 18.5234 4.26868 18.8205 4.7446L21.4322 8.94222L24.0475 4.73919C24.3419 4.26417 24.5133 3.70443 24.5133 3.10413L24.5124 3.10323Z" fill="#5C4FE7"/>
<path d="M31.9591 0.335392C30.9323 -0.309078 29.5798 0.00459417 28.9381 1.03575L23.247 10.1827C22.6053 11.2139 22.9177 12.5722 23.9444 13.2167C24.3061 13.4438 24.7073 13.552 25.104 13.552C25.8345 13.552 26.5498 13.1851 26.9654 12.5163L32.6564 3.36936C33.2981 2.33821 32.9858 0.979863 31.9591 0.335392Z" fill="#01D8AE"/>
<path d="M3.27856 27.8942L0 17.9595H2.85404L4.68583 24.4285L6.73033 17.9595H8.9292L10.9737 24.4285L12.8055 17.9595H15.6595L12.381 27.8951H9.7199L7.82977 22.0264L5.93964 27.8951H3.27856V27.8942Z" fill="#083666"/>
<path d="M17.7029 26.6262C16.7004 25.6256 16.1987 24.389 16.1987 22.9171C16.1987 21.4452 16.6968 20.2121 17.6931 19.2179C18.6893 18.2237 19.9458 17.7271 21.4634 17.7271C23.2629 17.7271 24.6514 18.4761 25.6287 19.9732L23.6812 21.6966C23.1669 20.7935 22.4471 20.341 21.5209 20.341C20.8397 20.341 20.277 20.5862 19.8336 21.0774C19.3902 21.5686 19.1685 22.1816 19.1685 22.9171C19.1685 23.6526 19.3902 24.3016 19.8336 24.7856C20.277 25.2696 20.8523 25.5121 21.5595 25.5121C22.3951 25.5121 23.1346 25.1056 23.7772 24.2916L25.6476 25.9961C25.1845 26.655 24.593 27.1742 23.8732 27.5555C23.1534 27.9358 22.3565 28.1269 21.4823 28.1269C19.9655 28.1269 18.7054 27.6267 17.7029 26.6262Z" fill="#083666"/>
<path d="M26.2841 29.3086C26.2841 28.4307 26.8046 27.779 27.8457 27.3526C27.318 26.9912 27.0551 26.5009 27.0551 25.8807C27.0551 25.1966 27.4724 24.6215 28.3089 24.1573C27.1771 23.4471 26.6117 22.479 26.6117 21.2523C26.6117 20.2716 27.0138 19.4387 27.817 18.7537C28.6203 18.0696 29.6075 17.7271 30.777 17.7271C31.2266 17.7271 31.6763 17.8046 32.1268 17.9596H36.1763V20.1481H34.7107C34.8651 20.4969 34.9423 20.8647 34.9423 21.2523C34.9423 22.2591 34.5375 23.1018 33.727 23.7797C32.9175 24.4575 31.9204 24.7964 30.7384 24.7964C30.4943 24.7964 30.3139 24.7901 30.1981 24.7775C29.7996 24.9325 29.6004 25.1263 29.6004 25.3588C29.6004 25.6951 29.8633 25.8627 30.391 25.8627H32.8592C33.8742 25.8627 34.6972 26.1376 35.3273 26.6856C35.9573 27.2346 36.2723 27.9412 36.2723 28.8065C36.2723 29.7232 35.7967 30.4849 34.8453 31.0915C33.894 31.6981 32.6474 32.0019 31.1046 32.0019C29.6515 32.0019 28.4848 31.7567 27.6043 31.2654C26.7239 30.7742 26.2832 30.1225 26.2832 29.3095L26.2841 29.3086ZM29.1193 28.8633C29.1193 29.1599 29.3024 29.3897 29.6686 29.5511C30.0347 29.7124 30.5203 29.7935 31.1243 29.7935C32.6545 29.7935 33.4192 29.4772 33.4192 28.8444C33.4192 28.5992 33.3133 28.409 33.1006 28.2729C32.8879 28.1368 32.6348 28.0692 32.3386 28.0692H29.7161C29.3176 28.263 29.1184 28.5271 29.1184 28.8633H29.1193ZM29.1965 21.2523C29.1965 21.6398 29.3473 21.9724 29.6497 22.2501C29.9513 22.5277 30.3273 22.6665 30.7779 22.6665C31.2284 22.6665 31.5874 22.5277 31.8962 22.2501C32.2049 21.9724 32.3593 21.6398 32.3593 21.2523C32.3593 20.8647 32.2076 20.5195 31.906 20.2545C31.6036 19.9904 31.2275 19.8579 30.7779 19.8579C30.3282 19.8579 29.9513 19.9904 29.6497 20.2545C29.3473 20.5195 29.1965 20.8521 29.1965 21.2523Z" fill="#083666"/>
<path d="M39.5179 18.2586H38.8672V17.981H40.4728V18.2586H39.8221V20.1577H39.5179V18.2586Z" fill="#083666"/>
<path d="M40.8319 20.1587V17.9819H41.111L41.9152 19.2736L42.7193 17.9819H42.9984V20.1587H42.6942V18.5615L42.0094 19.6314H41.8191L41.1343 18.5615V20.1587H40.8301H40.8319Z" fill="#083666"/>
</g>
<defs>
<clipPath id="clip0_94_1979">
<rect width="43" height="32" fill="white"/>
</clipPath>
</defs>
</svg>
