<svg width="2264" height="720" viewBox="0 0 2264 720" fill="none" xmlns="http://www.w3.org/2000/svg">
<path d="M-0.000244141 12C-0.000244141 5.37257 5.37234 0 11.9998 0H2252C2258.63 0 2264 5.37258 2264 12V708C2264 714.627 2258.63 720 2252 720H11.9997C5.37231 720 -0.000244141 714.627 -0.000244141 708V12Z" fill="white"/>
<path d="M2019.8 523.517C1959.92 523.517 1917.66 498.432 1914.76 441.266H1969.82C1974.16 468.523 1992.99 478.412 2018.59 478.412C2046.6 478.412 2067.36 470.935 2067.36 448.261C2067.36 427.276 2048.29 422.452 2010.62 411.357C1960.16 396.643 1920.32 378.312 1920.32 326.452C1920.32 279.658 1958.71 251.437 2013.52 251.437C2066.4 251.437 2106.48 271.699 2114.45 331.518L2059.4 331.276C2051.91 303.297 2033.8 296.06 2013.04 296.06C1989.86 296.06 1975.37 307.638 1975.37 325.487C1975.37 346.955 1993.96 355.156 2031.15 366.251C2071.23 378.312 2122.42 388.442 2122.42 444.161C2122.42 493.849 2081.61 523.517 2019.8 523.517Z" fill="#09111A"/>
<path d="M1797.61 524C1718.9 524 1672.78 468.764 1672.78 386.995C1672.78 301.367 1721.56 251.196 1792.54 251.196C1862.57 251.196 1899.75 293.89 1897.82 346.714H1843.25C1842.28 318.01 1826.35 299.679 1792.79 299.437C1747.88 299.196 1730.73 332.724 1730.73 385.789C1730.73 446.573 1752.95 475.759 1801 476C1817.66 476 1844.22 460.322 1843.49 434.513H1897.82C1899.51 490.231 1850.49 524 1797.61 524Z" fill="#09111A"/>
<path d="M1613.51 216.945C1592.74 216.945 1576.08 201.025 1576.08 178.352C1576.08 155.92 1592.74 140 1613.51 140C1634.03 140 1650.69 155.92 1650.69 178.352C1650.69 201.025 1633.79 216.945 1613.51 216.945ZM1584.29 519.417V256.02H1642L1641.03 519.417H1584.29Z" fill="#09111A"/>
<path d="M1411.9 519.417V256.02H1460.67L1465.02 324.04C1472.75 287.136 1492.79 250.714 1538.42 250.714C1544.94 250.714 1551.46 251.437 1557.02 252.884V313.668C1545.91 310.05 1532.87 309.327 1522.49 309.327C1503.9 309.327 1477.09 320.663 1468.88 342.854V519.417H1411.9Z" fill="#09111A"/>
<path d="M1321.8 523.276C1280.03 523.276 1255.4 501.085 1255.4 461.286V327.899C1255.4 317.527 1259.99 308.12 1268.68 305.467H1220.87V256.02H1255.88L1268.2 180.764H1311.66V256.02H1378.06V305.467H1311.66V447.055C1311.66 465.869 1318.18 472.14 1340.87 472.14C1355.36 472.14 1367.43 471.899 1377.58 471.658V520.14C1360.67 523.276 1339.43 523.276 1321.8 523.276Z" fill="#09111A"/>
<path d="M1067.24 522.312C1018.95 522.312 984.906 492.884 984.906 450.673C984.906 404.362 1011.71 383.377 1055.65 373.97C1086.56 367.216 1127.12 364.322 1143.06 363.116V352.503C1143.06 316.804 1130.02 298.955 1095.98 298.955C1063.14 298.955 1046.24 308.121 1045.51 349.849H993.599C988.045 281.588 1031.27 251.196 1099.12 251.196C1152.24 251.196 1198.11 271.457 1198.11 347.196V519.417H1142.34L1143.06 460.322C1137.02 496.02 1112.4 522.312 1067.24 522.312ZM1082.45 479.377C1107.32 479.377 1137.75 465.387 1143.06 443.196V394.955C1130.02 396.402 1110.22 400.02 1097.67 402.673C1061.69 410.151 1046.72 420.281 1046.72 444.884C1046.72 466.111 1063.38 479.377 1082.45 479.377Z" fill="#09111A"/>
<path d="M827.101 522.311C758.769 522.311 723.999 465.146 723.999 386.271C723.999 297.266 775.188 251.196 829.033 251.196C872.495 251.196 891.087 273.146 898.089 290.754V144.101H954.832V519.417H898.331V459.357L898.089 460.08C895.192 480.583 880.946 522.311 827.101 522.311ZM782.19 387.477C782.19 443.92 806.577 476 842.796 476C879.014 476 894.95 453.568 898.089 443.196L898.331 443.919L898.089 323.317V323.558C893.985 311.498 879.98 298.955 847.142 298.955C809.233 298.955 782.19 324.764 782.19 387.477Z" fill="#09111A"/>
<path d="M332.288 127.057C349.664 117.648 370.335 117.648 387.711 127.057L547.501 213.588C567.466 224.4 579.999 245.934 579.999 269.425V450.575C579.999 474.066 567.466 495.6 547.501 506.412L387.711 592.943C370.335 602.352 349.664 602.352 332.288 592.943L172.498 506.412C152.533 495.6 140 474.066 140 450.575V269.425C140 245.934 152.533 224.4 172.498 213.588L332.288 127.057Z" fill="#09111A"/>
</svg>
