<svg width="274" height="48" viewBox="0 0 274 48" fill="none" xmlns="http://www.w3.org/2000/svg">
<path fill-rule="evenodd" clip-rule="evenodd" d="M19.9519 47.5801L6.29668 39.7932C6.05937 39.6625 5.92865 39.6404 5.92865 39.4011C5.92865 38.7475 5.51437 38.2226 4.99149 38.2226C4.81218 38.2363 4.63955 38.2966 4.49073 38.3975C4.25142 38.5504 4.20918 38.5725 3.70641 38.3111L1.32932 36.9596C0.456514 36.4589 0 35.6082 0 34.5604V13.3094C0 12.328 0.52288 11.4994 1.43993 10.9765L20.0625 0.354017C20.9333 -0.148752 21.9147 -0.10652 22.8297 0.420382L41.4362 11.0429C42.309 11.5457 42.7655 12.3943 42.7655 13.4441V34.6911C42.7655 35.6725 42.2427 36.5011 41.3256 37.024L22.7191 47.6485C21.8463 48.1472 20.8669 48.107 19.9519 47.5801Z" fill="#CFCDCE"/>
<path fill-rule="evenodd" clip-rule="evenodd" d="M39.6102 9.99493L41.4443 11.0427C42.3171 11.5435 42.7716 12.3941 42.7716 13.4419V34.6889C42.7716 35.6723 42.2487 36.4989 41.3317 37.0218L24.0988 46.862C22.4859 47.777 22.0917 47.2139 22.0917 45.3999V33.1826C22.0917 32.7241 22.0475 32.6155 22.3753 32.4848C22.7675 32.332 23.0289 31.8955 23.0289 31.3505C23.0289 30.8478 22.7896 30.4355 22.4396 30.2605C22.0897 30.0836 22.0897 30.0614 22.0897 29.6291V28.2092C22.0897 26.6607 22.3069 26.16 23.4854 25.1564L40.475 14.3368L39.6022 9.99292L39.6102 9.99493Z" fill="#909090"/>
<path fill-rule="evenodd" clip-rule="evenodd" d="M0.189023 12.3943C0.406219 11.8051 0.842623 11.3285 1.456 10.9765L20.0585 0.354017C20.9313 -0.148752 21.9127 -0.10652 22.8277 0.420382L41.4342 11.0429C42.0013 11.3727 42.3935 11.8493 42.5906 12.4165C42.3754 13.0077 41.937 13.4843 41.3256 13.8363L22.7191 24.4588C21.8463 24.9615 20.8649 24.9173 19.9499 24.3924L1.34338 13.7699C0.802924 13.467 0.391708 12.9771 0.187012 12.3923L0.189023 12.3943Z" fill="#ADABAB"/>
<path fill-rule="evenodd" clip-rule="evenodd" d="M8.52307 12.1105C8.66406 11.7423 8.93626 11.4393 9.28728 11.2598C12.9756 9.14217 16.4206 7.17936 20.5855 4.80227C21.1084 4.49659 21.7218 4.51871 22.2668 4.84651L33.565 11.3041C33.9149 11.5012 34.1542 11.7867 34.2628 12.1326C34.1219 12.5008 33.8496 12.8038 33.4986 12.9833L22.2004 19.4188C21.6775 19.7245 21.0641 19.7023 20.5191 19.3745L9.22091 12.9391C8.89494 12.7574 8.64673 12.4626 8.52307 12.1105Z" fill="#1F2021"/>
<path d="M78.8382 22.3992C78.3185 21.8425 77.7219 21.3631 77.0664 20.9753C76.4906 20.6338 75.8354 20.4487 75.166 20.4384C74.2811 20.4384 73.4887 20.5973 72.7607 20.913C72.0755 21.231 71.4539 21.6712 70.9266 22.2121C70.4451 22.7663 70.0597 23.3971 69.7863 24.0784C69.5329 24.7743 69.4042 25.5023 69.4042 26.2604C69.4042 27.0206 69.5329 27.7486 69.7863 28.4445C70.0679 29.1403 70.4198 29.7738 70.9266 30.3107C71.4314 30.8477 72.0327 31.2922 72.7607 31.6099C73.4887 31.9256 74.2489 32.0845 75.166 32.0845C75.9261 32.0845 76.62 31.9256 77.2856 31.6421C77.9191 31.3263 78.4862 30.8517 78.9327 30.2504L82.1605 33.7296C81.6578 34.2356 81.0815 34.6628 80.4511 34.9966C79.8433 35.3341 79.2083 35.62 78.5526 35.8513C77.9191 36.0705 77.2876 36.2314 76.6883 36.2937C76.085 36.3862 75.5823 36.4506 75.1358 36.4506C73.7214 36.4539 72.3176 36.2074 70.989 35.7226C69.7433 35.2716 68.6027 34.5715 67.6365 33.6652C66.677 32.757 65.9031 31.671 65.3579 30.4676C64.8013 29.1355 64.5214 27.7041 64.5354 26.2604C64.5354 24.7119 64.819 23.3182 65.36 22.0834C65.896 20.8665 66.67 19.769 67.6365 18.8557C68.6032 17.9501 69.7437 17.2501 70.989 16.7983C72.3167 16.31 73.7211 16.0627 75.1358 16.0683C76.3706 16.0683 77.6356 16.3217 78.8704 16.7983C80.1355 17.2677 81.2733 18.0267 82.1927 19.0145L78.8402 22.4012L78.8382 22.3992ZM86.0519 16.5751H90.9227V36.0061H86.0539L86.0519 16.5751ZM85.3561 9.96067C85.3561 9.17233 85.6376 8.50666 86.2088 7.93753C86.8101 7.33622 87.5381 7.05064 88.425 7.05064C89.3119 7.05064 90.0721 7.33219 90.6412 7.90334C91.2767 8.4403 91.5603 9.13814 91.5603 9.96067C91.5603 10.7852 91.2425 11.5132 90.6432 12.0803C90.0399 12.6173 89.3119 12.9049 88.425 12.9049C87.5401 12.9049 86.7799 12.6193 86.2088 12.0502C85.6396 11.4167 85.3561 10.751 85.3561 9.96067ZM94.6191 16.5751H99.2385V19.7084H99.3331C99.8202 18.7115 100.549 17.8522 101.453 17.2086C102.4 16.4806 103.669 16.1025 105.312 16.1025C106.611 16.1025 107.717 16.3237 108.602 16.736C109.519 17.1784 110.247 17.7476 110.818 18.4454C111.387 19.1392 111.8 19.9618 112.019 20.8788C112.24 21.7979 112.401 22.7451 112.401 23.7607V36.0081H107.528V26.1679C107.528 25.633 107.498 25.0277 107.434 24.3982C107.388 23.7563 107.238 23.1261 106.991 22.5319C106.786 21.9582 106.424 21.4537 105.945 21.0759C105.471 20.6656 104.805 20.4766 103.953 20.4766C103.098 20.4766 102.464 20.6033 101.895 20.8868C101.359 21.1557 100.885 21.5322 100.501 21.9929C100.149 22.4676 99.8909 23.0056 99.7413 23.5777C99.5758 24.186 99.4913 24.8135 99.4899 25.4439V36.0142H94.6171L94.6191 16.5751ZM131.534 33.0941H131.44C130.796 34.2438 129.797 35.154 128.592 35.6884C127.38 36.236 126.064 36.5172 124.733 36.5129C123.215 36.5129 121.885 36.2595 120.681 35.7527C119.544 35.2325 118.522 34.4907 117.676 33.5707C116.827 32.6365 116.18 31.5369 115.776 30.3409C115.333 29.1061 115.142 27.7768 115.142 26.3228C115.142 24.8688 115.363 23.5676 115.838 22.3047C116.313 21.0699 116.944 19.9919 117.736 19.0749C118.57 18.1478 119.596 17.4135 120.743 16.923C121.934 16.3751 123.231 16.0937 124.542 16.0985C125.459 16.0985 126.281 16.193 126.975 16.382C127.673 16.5731 128.307 16.8245 128.844 17.1121C129.381 17.3976 129.855 17.7455 130.237 18.0935C130.617 18.4112 130.931 18.727 131.154 19.0749H131.281V5.37341H136.154V36.0061H131.534V33.0941ZM120.047 26.2886C120.047 27.0488 120.176 27.7768 120.429 28.4726C120.711 29.1685 121.063 29.7999 121.568 30.3389C122.074 30.8759 122.674 31.3203 123.404 31.636C124.132 31.9538 124.892 32.1127 125.809 32.1127C126.726 32.1127 127.486 31.9538 128.214 31.636C128.89 31.3339 129.494 30.8918 129.986 30.3389C130.493 29.8019 130.873 29.1685 131.126 28.4726C131.41 27.7768 131.538 27.0488 131.538 26.2886C131.538 25.5304 131.41 24.8004 131.126 24.1066C130.877 23.4132 130.489 22.778 129.986 22.2403C129.493 21.6884 128.89 21.2459 128.216 20.9411C127.458 20.6105 126.636 20.4485 125.809 20.4665C124.892 20.4665 124.132 20.6234 123.404 20.9411C122.718 21.259 122.096 21.6993 121.568 22.2403C121.087 22.7946 120.702 23.4254 120.429 24.1066C120.176 24.8004 120.047 25.5304 120.047 26.2886ZM143.649 27.998C143.808 29.452 144.377 30.5923 145.357 31.4148C146.338 32.2394 147.508 32.6154 148.868 32.6154C150.071 32.6154 151.084 32.362 151.905 31.8874C152.729 31.3806 153.457 30.7472 154.089 29.989L157.568 32.6134C156.43 34.0071 155.165 35.0187 153.771 35.62C152.37 36.2156 150.862 36.5168 149.34 36.5049C147.927 36.5085 146.524 36.2628 145.196 35.7789C143.949 35.3273 142.808 34.6266 141.841 33.7195C140.883 32.8118 140.109 31.7265 139.565 30.5239C139.007 29.192 138.727 27.7606 138.74 26.3168C138.74 24.7682 139.024 23.3745 139.565 22.1397C140.134 20.8728 140.892 19.7989 141.841 18.91C142.809 18.0042 143.95 17.3042 145.196 16.8526C146.523 16.3652 147.927 16.1187 149.34 16.1246C150.702 16.1246 151.905 16.378 153.013 16.8526C154.114 17.3004 155.099 17.993 155.893 18.8778C156.717 19.7647 157.316 20.8708 157.759 22.2001C158.233 23.4992 158.455 24.9854 158.455 26.6948V28.0242H143.643V27.994L143.649 27.996V27.998ZM153.618 24.3258C153.588 22.9019 153.143 21.7617 152.289 20.9713C151.436 20.1468 150.231 19.7063 148.683 19.7063C147.227 19.7063 146.056 20.1186 145.2 20.9733C144.377 21.7959 143.84 22.9361 143.649 24.3258H153.618ZM161.642 16.5731H166.513V19.642H166.608C167.145 18.5017 167.907 17.6168 168.92 17.0175C169.93 16.382 171.072 16.0985 172.367 16.0985C172.649 16.0985 172.936 16.1307 173.22 16.193C173.504 16.2573 173.821 16.3217 174.107 16.384V21.0658C173.709 20.9701 173.309 20.8856 172.906 20.8124C172.533 20.7237 172.15 20.6811 171.766 20.6857C170.626 20.6857 169.709 20.907 169.013 21.3192C168.349 21.7315 167.812 22.2061 167.43 22.7431C167.098 23.2356 166.852 23.781 166.702 24.356C166.62 24.7524 166.567 25.1544 166.543 25.5586V36.0001H161.672V16.5751H161.642V16.5731ZM176.776 5.3714H181.646V19.0105H181.775C182.029 18.6948 182.312 18.377 182.692 18.0291C183.074 17.6812 183.517 17.3655 184.086 17.0477C184.68 16.7389 185.306 16.4948 185.952 16.3197C186.748 16.1192 187.567 16.0238 188.388 16.0361C189.781 16.0361 191.046 16.3177 192.186 16.8587C193.357 17.3655 194.338 18.0935 195.129 19.0105C195.951 19.9296 196.617 21.0055 197.059 22.2403C197.534 23.4751 197.753 24.8044 197.753 26.2584C197.759 27.6231 197.545 28.9798 197.12 30.2766C196.703 31.467 196.058 32.5642 195.219 33.5063C194.373 34.4408 193.338 35.1846 192.182 35.6884C190.982 36.1952 189.653 36.4485 188.164 36.4485C186.834 36.4545 185.517 36.1732 184.305 35.624C183.104 35.0891 182.187 34.2323 181.457 33.0297H181.363V35.9418H176.743V5.37341L176.776 5.3714ZM192.88 26.2886C192.88 25.5304 192.754 24.8004 192.47 24.1066C192.221 23.4131 191.833 22.778 191.33 22.2403C190.837 21.6883 190.234 21.2458 189.56 20.9411C188.801 20.6105 187.98 20.4485 187.153 20.4665C186.236 20.4665 185.475 20.6234 184.747 20.9411C184.062 21.259 183.439 21.6992 182.911 22.2403C182.43 22.7944 182.044 23.4252 181.771 24.1066C181.52 24.8004 181.391 25.5304 181.391 26.2886C181.391 27.0488 181.52 27.7768 181.773 28.4726C182.055 29.1685 182.407 29.7999 182.911 30.3389C183.418 30.8759 184.017 31.3203 184.747 31.636C185.443 31.9538 186.236 32.1127 187.153 32.1127C188.07 32.1127 188.83 31.9538 189.558 31.636C190.286 31.3203 190.857 30.8779 191.328 30.3389C191.837 29.8019 192.217 29.1685 192.47 28.4726C192.748 27.7785 192.888 27.0364 192.88 26.2886ZM200.9 5.36938H205.773V36.0041H200.9V5.36938ZM208.979 26.2886C208.979 24.7381 209.265 23.3464 209.803 22.1116C210.339 20.8946 211.113 19.7971 212.08 18.8838C213.047 17.9773 214.188 17.2767 215.435 16.8245C216.762 16.3371 218.165 16.0905 219.579 16.0965C221.068 16.0965 222.427 16.3499 223.726 16.8245C224.972 17.2762 226.114 17.9769 227.081 18.8838C228.028 19.7687 228.758 20.8466 229.297 22.1116C229.866 23.3464 230.15 24.7381 230.15 26.2886C230.15 27.8411 229.866 29.2308 229.297 30.4958C228.776 31.6972 228.023 32.7839 227.081 33.6934C226.113 34.5991 224.972 35.299 223.726 35.7507C222.398 36.2382 220.994 36.4848 219.579 36.4787C218.165 36.4846 216.762 36.2381 215.435 35.7507C214.188 35.2995 213.047 34.5996 212.08 33.6934C211.121 32.785 210.348 31.699 209.803 30.4958C209.232 29.2308 208.979 27.807 208.979 26.2886ZM213.822 26.2886C213.822 27.0488 213.948 27.7768 214.202 28.4726C214.485 29.1685 214.837 29.7999 215.342 30.3389C215.849 30.8759 216.45 31.3203 217.178 31.636C217.906 31.9538 218.666 32.1127 219.583 32.1127C220.5 32.1127 221.261 31.9538 221.989 31.636C222.669 31.3424 223.275 30.8991 223.76 30.3389C224.265 29.8019 224.647 29.1685 224.901 28.4726C225.184 27.7768 225.311 27.0488 225.311 26.2886C225.311 25.5304 225.184 24.8004 224.901 24.1066C224.651 23.4135 224.263 22.7784 223.76 22.2403C223.267 21.6883 222.663 21.2457 221.989 20.9411C221.231 20.6109 220.41 20.449 219.583 20.4665C218.666 20.4665 217.906 20.6234 217.178 20.9411C216.492 21.259 215.87 21.6993 215.342 22.2403C214.861 22.7949 214.476 23.4256 214.202 24.1066C213.948 24.8059 213.819 25.5446 213.822 26.2886ZM247.043 22.3952C246.523 21.8381 245.927 21.3586 245.271 20.9713C244.637 20.6234 244.006 20.4344 243.372 20.4344C242.485 20.4344 241.695 20.5952 240.967 20.911C240.281 21.2287 239.659 21.669 239.131 22.2101C238.65 22.7648 238.265 23.3955 237.991 24.0764C237.737 24.7758 237.608 25.5144 237.611 26.2584C237.611 27.0186 237.737 27.7466 237.991 28.4425C238.274 29.1363 238.626 29.7698 239.131 30.3087C239.638 30.8437 240.239 31.2901 240.967 31.6059C241.695 31.9236 242.455 32.0825 243.372 32.0825C244.131 32.0825 244.826 31.9216 245.492 31.6401C246.126 31.3223 246.693 30.8497 247.137 30.2464L250.367 33.7276C249.865 34.2332 249.289 34.6603 248.659 34.9945C248.051 35.3311 247.415 35.6163 246.759 35.8472C246.126 36.0685 245.494 36.2293 244.893 36.2897C244.293 36.3842 243.787 36.4485 243.342 36.4485C241.928 36.4516 240.524 36.2052 239.195 35.7205C237.949 35.2688 236.808 34.5682 235.841 33.6612C234.882 32.7535 234.109 31.6682 233.564 30.4656C233.008 29.1336 232.728 27.7021 232.742 26.2584C232.742 24.7099 233.025 23.3162 233.564 22.0814C234.1 20.8637 234.874 19.7655 235.841 18.8516C236.809 17.9462 237.95 17.2464 239.195 16.7943C240.523 16.3067 241.928 16.0602 243.342 16.0663C244.577 16.0663 245.842 16.3197 247.077 16.7943C248.342 17.2638 249.48 18.0228 250.399 19.0105L247.047 22.3992L247.043 22.3952ZM254.393 5.36938H259.266V24.6114L266.765 16.5409H273L264.648 25.3695L273.506 35.9739H267.053L259.33 26.0392H259.236V36.0081H254.363V5.37341H254.393V5.36938Z" fill="#141414"/>
</svg>
