<svg xmlns="http://www.w3.org/2000/svg" fill="none"><path fill-rule="evenodd" clip-rule="evenodd" d="m9.921 24.297-6.79-3.872c-.118-.065-.183-.076-.183-.195 0-.325-.206-.586-.466-.586a.513.513 0 0 0-.249.087c-.119.076-.14.087-.39-.043l-1.182-.672C.227 18.767 0 18.344 0 17.823V7.256c0-.488.26-.9.716-1.16L9.976.814c.433-.25.921-.229 1.376.033l9.252 5.282c.434.25.661.672.661 1.194v10.565c0 .488-.26.9-.716 1.16l-9.252 5.283c-.434.248-.922.228-1.377-.034h.001Z" fill="#CFCDCE"/><path fill-rule="evenodd" clip-rule="evenodd" d="m19.696 5.608.912.521c.434.249.66.672.66 1.193v10.565c0 .489-.26.9-.716 1.16l-8.569 4.893c-.802.455-.998.175-.998-.727v-6.075c0-.228-.022-.282.141-.347.195-.076.325-.293.325-.564 0-.25-.119-.455-.293-.542-.174-.088-.174-.099-.174-.314v-.706c0-.77.108-1.019.694-1.518l8.448-5.38-.434-2.16h.004Z" fill="#909090"/><path fill-rule="evenodd" clip-rule="evenodd" d="M.094 6.801c.108-.293.325-.53.63-.705L9.974.814c.434-.25.922-.229 1.377.033l9.252 5.282c.282.164.477.401.575.683-.107.294-.325.531-.629.706L11.297 12.8c-.434.25-.922.228-1.377-.033L.668 7.485A1.264 1.264 0 0 1 .093 6.8h.001Z" fill="#ADABAB"/><path fill-rule="evenodd" clip-rule="evenodd" d="M4.238 6.66a.794.794 0 0 1 .38-.423c1.834-1.053 3.547-2.029 5.618-3.211.26-.152.565-.141.836.022l5.618 3.211c.174.098.293.24.347.412a.794.794 0 0 1-.38.423l-5.618 3.2c-.26.152-.565.141-.836-.022l-5.618-3.2a.76.76 0 0 1-.347-.412Z" fill="#1F2021"/><path d="M39.202 11.776a3.972 3.972 0 0 0-.881-.708 1.91 1.91 0 0 0-.945-.267c-.44 0-.834.079-1.196.236a3.09 3.09 0 0 0-.912.646 3.272 3.272 0 0 0-.567.928c-.126.346-.19.708-.19 1.085 0 .378.064.74.19 1.086.14.346.315.661.567.928.251.267.55.488.912.646.362.157.74.236 1.196.236.378 0 .723-.079 1.054-.22.315-.157.597-.393.819-.692l1.605 1.73a3.52 3.52 0 0 1-.85.63 6.17 6.17 0 0 1-.944.425c-.315.109-.629.189-.927.22-.3.046-.55.078-.772.078a5.974 5.974 0 0 1-2.062-.362 4.85 4.85 0 0 1-1.667-1.023 5.07 5.07 0 0 1-1.133-1.59 5.293 5.293 0 0 1-.409-2.092c0-.77.141-1.463.41-2.077a4.958 4.958 0 0 1 1.132-1.605 4.866 4.866 0 0 1 1.667-1.023 5.906 5.906 0 0 1 2.062-.363c.614 0 1.243.126 1.857.363a4.3 4.3 0 0 1 1.652 1.102l-1.667 1.684-.002-.001Zm3.587-2.896h2.422v9.662H42.79V8.88Zm-.346-3.289c0-.392.14-.723.424-1.006.299-.299.661-.441 1.102-.441.441 0 .819.14 1.102.424.316.267.457.614.457 1.023 0 .41-.158.772-.456 1.054-.3.267-.662.41-1.103.41-.44 0-.818-.142-1.102-.425-.283-.315-.424-.646-.424-1.039Zm4.606 3.289h2.297v1.558h.047a3.31 3.31 0 0 1 1.054-1.243c.471-.362 1.102-.55 1.919-.55.646 0 1.196.11 1.636.315.456.22.818.503 1.102.85.283.345.488.754.597 1.21.11.457.19.928.19 1.433v6.09h-2.423V13.65c0-.266-.015-.567-.047-.88a2.972 2.972 0 0 0-.22-.928 1.617 1.617 0 0 0-.52-.724c-.236-.204-.567-.298-.991-.298-.425 0-.74.063-1.023.204a2.165 2.165 0 0 0-.693.55 2.296 2.296 0 0 0-.378.788 3.563 3.563 0 0 0-.125.928v5.256h-2.423V8.88h.001Zm18.356 8.214h-.047a3.032 3.032 0 0 1-1.416 1.29 4.626 4.626 0 0 1-1.919.41c-.755 0-1.416-.126-2.015-.378a4.671 4.671 0 0 1-1.494-1.085 4.558 4.558 0 0 1-.945-1.606c-.22-.614-.315-1.275-.315-1.998 0-.723.11-1.37.346-1.998.236-.614.55-1.15.944-1.606a4.27 4.27 0 0 1 1.495-1.07 4.482 4.482 0 0 1 1.889-.41c.456 0 .865.047 1.21.141.347.095.662.22.929.363.267.142.503.315.693.488.189.158.345.315.456.488h.063V3.31h2.423v15.232h-2.297v-1.448Zm-5.712-3.384c0 .378.064.74.19 1.086.14.346.315.66.566.928.252.267.55.488.913.645.362.158.74.237 1.196.237.456 0 .834-.079 1.196-.237a2.6 2.6 0 0 0 .881-.645c.252-.267.441-.582.567-.928.141-.346.205-.708.205-1.086 0-.377-.064-.74-.205-1.085a2.683 2.683 0 0 0-.567-.928 2.634 2.634 0 0 0-.88-.646 2.841 2.841 0 0 0-1.197-.236c-.456 0-.834.078-1.196.236a3.093 3.093 0 0 0-.913.646 3.271 3.271 0 0 0-.566.928c-.126.345-.19.708-.19 1.085Zm11.736.85c.079.723.362 1.29.849 1.699.488.41 1.07.597 1.746.597.598 0 1.102-.126 1.51-.362.41-.252.772-.567 1.086-.944l1.73 1.305c-.566.693-1.195 1.196-1.888 1.495a5.518 5.518 0 0 1-2.203.44 5.975 5.975 0 0 1-2.061-.361 4.855 4.855 0 0 1-1.668-1.024 5.07 5.07 0 0 1-1.132-1.589 5.292 5.292 0 0 1-.41-2.092c0-.77.141-1.463.41-2.077.283-.63.66-1.164 1.132-1.606a4.867 4.867 0 0 1 1.668-1.023 5.907 5.907 0 0 1 2.061-.362c.677 0 1.275.126 1.826.362a3.895 3.895 0 0 1 1.432 1.007c.41.441.708.991.928 1.652.236.646.346 1.385.346 2.235v.661h-7.365v-.015l.003.001Zm4.957-1.826c-.015-.708-.236-1.275-.661-1.668-.424-.41-1.023-.629-1.793-.629-.724 0-1.306.205-1.732.63-.409.409-.676.976-.771 1.667h4.957Zm3.99-3.855h2.422v1.526h.047c.267-.567.646-1.007 1.15-1.305.502-.316 1.07-.457 1.714-.457.14 0 .283.016.424.047.141.032.299.064.441.095v2.328a10.84 10.84 0 0 0-.597-.126 2.332 2.332 0 0 0-.567-.063c-.567 0-1.023.11-1.369.315-.33.205-.597.441-.787.708a2.61 2.61 0 0 0-.362.802 4.151 4.151 0 0 0-.079.598v5.192h-2.422V8.88h-.015Zm7.525-5.57h2.422v6.782h.064c.126-.157.267-.315.456-.488.19-.173.41-.33.693-.488a4.65 4.65 0 0 1 .928-.362 4.67 4.67 0 0 1 1.211-.141c.693 0 1.322.14 1.889.409.582.252 1.07.614 1.463 1.07.409.457.74.992.96 1.606.236.614.345 1.275.345 1.998a6.33 6.33 0 0 1-.315 1.998 4.8 4.8 0 0 1-.945 1.606 4.42 4.42 0 0 1-1.51 1.085c-.597.252-1.258.378-1.998.378a4.6 4.6 0 0 1-1.919-.41c-.597-.266-1.053-.692-1.416-1.29h-.047v1.448h-2.297V3.31h.016v-.002Zm8.008 10.401c0-.377-.063-.74-.204-1.085a2.682 2.682 0 0 0-.567-.928 2.632 2.632 0 0 0-.88-.646 2.841 2.841 0 0 0-1.197-.236c-.456 0-.834.078-1.196.236a3.092 3.092 0 0 0-.913.646 3.272 3.272 0 0 0-.567.928c-.125.345-.189.708-.189 1.085 0 .378.064.74.19 1.086.14.346.315.66.566.928.252.267.55.488.913.645.346.158.74.237 1.196.237.456 0 .834-.079 1.196-.237.362-.157.646-.377.88-.645.253-.267.442-.582.568-.928a2.84 2.84 0 0 0 .204-1.086Zm3.988-10.402h2.423v15.233h-2.423V3.308Zm4.017 10.402c0-.771.142-1.463.41-2.077a4.957 4.957 0 0 1 1.132-1.605 4.867 4.867 0 0 1 1.668-1.024 5.907 5.907 0 0 1 2.061-.362c.74 0 1.416.126 2.062.362a4.857 4.857 0 0 1 1.668 1.024c.471.44.834.976 1.102 1.605.283.614.424 1.306.424 2.077 0 .772-.141 1.463-.424 2.092a4.943 4.943 0 0 1-1.102 1.59 4.868 4.868 0 0 1-1.668 1.023 5.91 5.91 0 0 1-2.062.362 5.908 5.908 0 0 1-2.061-.362 4.858 4.858 0 0 1-1.668-1.023 5.07 5.07 0 0 1-1.132-1.59c-.284-.629-.41-1.337-.41-2.092Zm2.408 0c0 .378.063.74.189 1.086.141.346.316.66.567.928.252.267.551.488.913.645.362.158.74.237 1.196.237.456 0 .834-.079 1.196-.237a2.45 2.45 0 0 0 .881-.645c.251-.267.441-.582.567-.928.141-.346.204-.708.204-1.086 0-.377-.063-.74-.204-1.085a2.695 2.695 0 0 0-.567-.928 2.636 2.636 0 0 0-.881-.646 2.843 2.843 0 0 0-1.196-.236c-.456 0-.834.078-1.196.236a3.093 3.093 0 0 0-.913.646 3.295 3.295 0 0 0-.567.928 3.147 3.147 0 0 0-.189 1.085Zm16.519-1.936a3.953 3.953 0 0 0-.881-.708c-.315-.173-.629-.267-.944-.267-.441 0-.834.08-1.196.237a3.09 3.09 0 0 0-.913.646 3.295 3.295 0 0 0-.567.928 3.147 3.147 0 0 0-.189 1.085c0 .378.063.74.189 1.086.141.345.316.66.567.928.252.266.551.488.913.645.362.158.74.237 1.196.237.377 0 .723-.08 1.054-.22.315-.158.597-.393.818-.693l1.606 1.731a3.53 3.53 0 0 1-.849.63 6.22 6.22 0 0 1-.945.424c-.315.11-.629.19-.928.22-.298.047-.55.079-.771.079a5.98 5.98 0 0 1-2.062-.362 4.857 4.857 0 0 1-1.668-1.024 5.069 5.069 0 0 1-1.132-1.589 5.29 5.29 0 0 1-.409-2.092c0-.77.141-1.463.409-2.077a4.957 4.957 0 0 1 1.132-1.606 4.876 4.876 0 0 1 1.668-1.023 5.908 5.908 0 0 1 2.062-.362c.614 0 1.243.126 1.857.362a4.302 4.302 0 0 1 1.652 1.102l-1.667 1.685-.002-.002Zm3.655-8.466h2.423v9.568l3.729-4.013h3.1l-4.153 4.39L136 18.526h-3.209l-3.84-4.94h-.047v4.957h-2.423V3.31h.015v-.002Z" fill="#141414"/></svg>