<svg width="1982" height="720" viewBox="0 0 1982 720" fill="none" xmlns="http://www.w3.org/2000/svg">
<g clip-path="url(#clip0_1465_134)">
<path d="M1879.8 523.517C1819.92 523.517 1777.66 498.432 1774.76 441.266H1829.82C1834.16 468.523 1852.99 478.412 1878.59 478.412C1906.6 478.412 1927.36 470.935 1927.36 448.261C1927.36 427.276 1908.29 422.452 1870.62 411.357C1820.16 396.643 1780.32 378.312 1780.32 326.452C1780.32 279.658 1818.71 251.437 1873.52 251.437C1926.4 251.437 1966.48 271.699 1974.45 331.518L1919.4 331.276C1911.91 303.297 1893.8 296.06 1873.04 296.06C1849.86 296.06 1835.37 307.638 1835.37 325.487C1835.37 346.955 1853.96 355.156 1891.15 366.251C1931.23 378.312 1982.42 388.442 1982.42 444.161C1982.42 493.849 1941.61 523.517 1879.8 523.517Z" fill="#09111A"/>
<path d="M1657.61 524C1578.9 524 1532.78 468.764 1532.78 386.995C1532.78 301.367 1581.56 251.196 1652.54 251.196C1722.57 251.196 1759.75 293.89 1757.82 346.714H1703.25C1702.28 318.01 1686.35 299.679 1652.79 299.437C1607.88 299.196 1590.73 332.724 1590.73 385.789C1590.73 446.573 1612.95 475.759 1661 476C1677.66 476 1704.22 460.322 1703.49 434.513H1757.82C1759.51 490.231 1710.49 524 1657.61 524Z" fill="#09111A"/>
<path d="M1473.51 216.945C1452.74 216.945 1436.08 201.025 1436.08 178.352C1436.08 155.92 1452.74 140 1473.51 140C1494.03 140 1510.69 155.92 1510.69 178.352C1510.69 201.025 1493.79 216.945 1473.51 216.945ZM1444.29 519.417V256.02H1502L1501.03 519.417H1444.29Z" fill="#09111A"/>
<path d="M1271.9 519.417V256.02H1320.67L1325.02 324.04C1332.75 287.136 1352.79 250.714 1398.42 250.714C1404.94 250.714 1411.46 251.437 1417.02 252.884V313.668C1405.91 310.05 1392.87 309.327 1382.49 309.327C1363.9 309.327 1337.09 320.663 1328.88 342.854V519.417H1271.9Z" fill="#09111A"/>
<path d="M1181.8 523.276C1140.03 523.276 1115.4 501.085 1115.4 461.286V327.899C1115.4 317.527 1119.99 308.12 1128.68 305.467H1080.87V256.02H1115.88L1128.2 180.764H1171.66V256.02H1238.06V305.467H1171.66V447.055C1171.66 465.869 1178.18 472.14 1200.87 472.14C1215.36 472.14 1227.43 471.899 1237.58 471.658V520.14C1220.67 523.276 1199.43 523.276 1181.8 523.276Z" fill="#09111A"/>
<path d="M927.24 522.312C878.95 522.312 844.906 492.884 844.906 450.673C844.906 404.362 871.71 383.377 915.65 373.97C946.56 367.216 987.12 364.322 1003.06 363.116V352.503C1003.06 316.804 990.02 298.955 955.98 298.955C923.14 298.955 906.24 308.121 905.51 349.849H853.599C848.045 281.588 891.27 251.196 959.12 251.196C1012.24 251.196 1058.11 271.457 1058.11 347.196V519.417H1002.34L1003.06 460.322C997.02 496.02 972.4 522.312 927.24 522.312ZM942.45 479.377C967.32 479.377 997.75 465.387 1003.06 443.196V394.955C990.02 396.402 970.22 400.02 957.67 402.673C921.69 410.151 906.72 420.281 906.72 444.884C906.72 466.111 923.38 479.377 942.45 479.377Z" fill="#09111A"/>
<path d="M687.101 522.311C618.769 522.311 583.999 465.146 583.999 386.271C583.999 297.266 635.188 251.196 689.033 251.196C732.495 251.196 751.087 273.146 758.089 290.754V144.101H814.832V519.417H758.331V459.357L758.089 460.08C755.192 480.583 740.946 522.311 687.101 522.311ZM642.19 387.477C642.19 443.92 666.577 476 702.796 476C739.014 476 754.95 453.568 758.089 443.196L758.331 443.919L758.089 323.317V323.558C753.985 311.498 739.98 298.955 707.142 298.955C669.233 298.955 642.19 324.764 642.19 387.477Z" fill="#09111A"/>
<path d="M192.288 127.057C209.664 117.648 230.335 117.648 247.711 127.057L407.501 213.588C427.466 224.4 439.999 245.934 439.999 269.425V450.575C439.999 474.066 427.466 495.6 407.501 506.412L247.711 592.943C230.335 602.352 209.664 602.352 192.288 592.943L32.498 506.412C12.533 495.6 0 474.066 0 450.575V269.425C0 245.934 12.533 224.4 32.498 213.588L192.288 127.057Z" fill="#09111A"/>
</g>
<defs>

</defs>
</svg>
