<svg width="524" height="524" viewBox="0 0 524 524" fill="none" xmlns="http://www.w3.org/2000/svg">
<rect x="220.999" width="82" height="262" rx="12" fill="#FEC300"/>
<rect x="290.99" y="290.991" width="82" height="262" rx="12" transform="rotate(-135 290.99 290.991)" fill="#FEC300"/>
<rect x="47.7461" y="105.729" width="82" height="262" rx="12" transform="rotate(-45 47.7461 105.729)" fill="#FEC300"/>
<rect y="303" width="82" height="262" rx="12" transform="rotate(-90 0 303)" fill="#FEC300"/>
<rect x="261.999" y="303" width="82" height="262" rx="12" transform="rotate(-90 261.999 303)" fill="#FEC300"/>
<path d="M146.214 435.767C141.528 440.454 133.93 440.454 129.244 435.767L88.2315 394.755C83.5452 390.069 83.5452 382.471 88.2315 377.785L224.523 241.493L253.402 211.831C258.113 206.993 265.887 206.993 270.598 211.831L299.476 241.494L435.768 377.785C440.454 382.471 440.454 390.069 435.768 394.755L394.756 435.768C390.069 440.454 382.471 440.454 377.785 435.768L303 360.982V512C303 518.627 297.627 524 291 524H233C226.372 524 221 518.627 221 512V360.982L146.214 435.767Z" fill="#FC4500"/>
</svg>
