<svg width="524" height="524" viewBox="0 0 524 524" fill="none" xmlns="http://www.w3.org/2000/svg">
<rect x="238" y="185" width="4" height="148" fill="#D9D9D9"/>
<rect x="220.999" width="82" height="308" rx="12" fill="#48327A"/>
<rect x="290.99" y="290.991" width="82" height="262" rx="12" transform="rotate(-135 290.99 290.991)" fill="#48327A"/>
<rect x="261.999" y="303" width="82" height="262" rx="12" transform="rotate(-90 261.999 303)" fill="#48327A"/>
<rect x="220.999" y="262" width="82" height="262" rx="12" fill="#48327A"/>
<rect x="233.008" y="290.991" width="82" height="262" rx="12" transform="rotate(-45 233.008 290.991)" fill="#48327A"/>
<path fill-rule="evenodd" clip-rule="evenodd" d="M214.137 156.155L205.652 164.64L174.097 133.085L182.583 124.6L214.137 156.155ZM172.064 114.082L163.579 122.567L132.024 91.0124L140.51 82.5272L172.064 114.082ZM71.6109 81.8643L80.0962 90.3495L64.7167 105.729L84.7389 125.751L76.2536 134.237L56.2314 114.214C51.5451 109.528 51.5451 101.93 56.2314 97.2438L71.6109 81.8643ZM89.6018 147.585L129.646 187.629L138.132 179.144L98.087 139.099L89.6018 147.585ZM40.3156 221H12C5.37258 221 0 226.372 0 233L2.30875e-06 254.75H12L12 233H40.3156V221ZM59.1927 221V233H115.824V221H59.1927ZM134.701 221V233H163.017C167.87 233 172.246 230.076 174.103 225.592C175.961 221.108 174.934 215.946 171.502 212.514L151.48 192.492L142.994 200.977L163.017 221H134.701ZM214.137 367.844L205.652 359.359L174.097 390.914L182.582 399.399L214.137 367.844ZM172.064 409.917L163.579 401.432L132.024 432.986L140.509 441.472L172.064 409.917ZM129.991 451.99L121.506 443.505L105.729 459.282L90.3489 443.902L81.8637 452.388L97.2432 467.767C101.93 472.454 109.528 472.454 114.214 467.767L129.991 451.99ZM71.6106 442.135L80.0959 433.649L64.7163 418.27L84.7385 398.248L76.2532 389.762L56.231 409.785C51.5447 414.471 51.5447 422.069 56.231 426.755L71.6106 442.135ZM89.6013 376.414L98.0866 384.9L138.131 344.855L129.646 336.37L89.6013 376.414ZM142.994 323.022L151.479 331.507L171.501 311.485C174.933 308.053 175.96 302.891 174.102 298.407C172.245 293.923 167.869 291 163.016 291H134.7V303H163.016L142.994 323.022ZM115.823 303V291L59.1925 291V303H115.823ZM40.3155 303H12C5.37259 303 6.86016e-06 297.627 6.15666e-06 291L3.84792e-06 269.25H12L12 291H40.3155V303Z" fill="#48327A"/>
<path d="M106.728 65L122.505 80.7773L130.991 72.292L115.213 56.5147C110.527 51.8284 102.929 51.8284 98.2429 56.5147L82.8633 71.8943L91.3486 80.3796L106.728 65Z" fill="#48327A"/>
</svg>
