<svg width="524" height="524" viewBox="0 0 524 524" fill="none" xmlns="http://www.w3.org/2000/svg">
<path d="M257.757 257.757C255.414 260.1 255.414 263.899 257.757 266.243L265.447 273.932L269.689 269.69L274.816 274.816L270.573 279.059L278.262 286.749L282.505 282.506L278.263 286.749C279.141 287.627 279.683 288.693 279.905 289.815L285.791 288.65C286.096 290.195 286.096 291.788 285.791 293.333L279.905 292.168C279.683 293.289 279.141 294.356 278.263 295.234L262.485 311.011L266.728 315.254L256.21 325.772L251.967 321.53L220.412 353.084L224.655 357.327L214.137 367.845L209.894 363.602L178.34 395.157L182.582 399.4L172.064 409.918L167.821 405.675L136.267 437.23L140.509 441.473L129.991 451.991L125.748 447.748L109.971 463.525C107.628 465.869 103.829 465.869 101.486 463.525L86.1063 448.146L81.8637 452.389L71.6106 442.136L75.8533 437.893L60.4737 422.513C58.1305 420.17 58.1305 416.371 60.4737 414.028L80.4958 394.006L76.2532 389.763L89.6013 376.415L93.844 380.658L133.888 340.613L129.646 336.371L142.994 323.023L147.236 327.265L167.259 307.243C168.975 305.527 169.488 302.946 168.559 300.704C167.631 298.462 165.443 297 163.016 297H134.7L134.7 303H115.823V297L59.1925 297V303H40.3155L40.3155 297H12C8.6863 297 6.00001 294.314 6.00001 291L6 269.25H4.64404e-06L2.78642e-06 254.75H6L6 233C6 229.687 8.68629 227 12 227H40.3156V221H59.1927V227L115.824 227V221H134.701V227H163.017C165.443 227 167.631 225.539 168.56 223.297C169.489 221.055 168.975 218.474 167.259 216.758L147.237 196.736L142.994 200.978L129.646 187.63L133.889 183.387L93.8444 143.343L89.6018 147.586L76.2536 134.237L80.4962 129.995L60.474 109.973C58.1309 107.629 58.1309 103.83 60.474 101.487L75.8536 86.1078L71.611 81.8651L81.864 71.6121L86.1066 75.8547L101.486 60.4751C103.829 58.132 107.628 58.132 109.971 60.4751L125.749 76.2525L129.991 72.0098L140.51 82.528L136.267 86.7707L167.822 118.325L172.064 114.083L182.583 124.601L178.34 128.844L209.895 160.398L214.137 156.156L224.655 166.674L220.413 170.916L251.967 202.471L256.21 198.228L266.728 208.747L262.486 212.989L278.263 228.767C279.141 229.645 279.683 230.711 279.905 231.833L285.791 230.668C286.097 232.212 286.097 233.806 285.791 235.351L279.905 234.185C279.683 235.307 279.141 236.374 278.263 237.252L270.573 244.941L274.816 249.184L269.69 254.31L265.447 250.068L257.757 257.757Z" stroke="#48327A" stroke-width="12" stroke-linejoin="round" stroke-dasharray="48 16"/>
<rect x="220.999" width="82" height="308" rx="12" fill="#48327A"/>
<rect x="290.99" y="290.991" width="82" height="262" rx="12" transform="rotate(-135 290.99 290.991)" fill="#48327A"/>
<rect x="261.999" y="303" width="82" height="262" rx="12" transform="rotate(-90 261.999 303)" fill="#48327A"/>
<rect x="220.999" y="262" width="82" height="262" rx="12" fill="#48327A"/>
<rect x="233.008" y="290.991" width="82" height="262" rx="12" transform="rotate(-45 233.008 290.991)" fill="#48327A"/>
</svg>
