<svg width="524" height="524" viewBox="0 0 524 524" fill="none" xmlns="http://www.w3.org/2000/svg">
<path fill-rule="evenodd" clip-rule="evenodd" d="M7.43046e-06 291C7.43046e-06 297.627 5.37259 303 12 303L163.016 303L56.231 409.785C51.5447 414.471 51.5447 422.069 56.231 426.755L97.2432 467.768C101.93 472.454 109.528 472.454 114.214 467.768L261.999 319.982L409.785 467.768C414.471 472.454 422.069 472.454 426.755 467.768L467.767 426.756C472.454 422.069 472.454 414.471 467.767 409.785L360.982 303L511.999 303C518.626 303 523.999 297.627 523.999 291V233C523.999 226.373 518.626 221 511.999 221L273.999 221C267.408 221 262.058 226.314 262 232.891C261.941 226.314 256.591 221 250 221L12 221C5.37258 221 -7.03496e-07 226.373 0 233L7.43046e-06 291Z" fill="#01A2E6" fill-opacity="0.2"/>
<rect x="220.999" width="82" height="262" rx="12" fill="#01A2E6"/>
<rect x="290.99" y="290.991" width="82" height="262" rx="12" transform="rotate(-135 290.99 290.991)" fill="#01A2E6"/>
<rect x="47.7461" y="105.729" width="82" height="262" rx="12" transform="rotate(-45 47.7461 105.729)" fill="#01A2E6"/>
<rect x="220.999" y="262" width="82" height="262" rx="12" fill="#01A2E6"/>
</svg>
