<svg width="104" height="18" viewBox="0 0 104 18" fill="none" xmlns="http://www.w3.org/2000/svg">
<path d="M21.9107 1.52373H27.3784C27.0868 2.40095 26.7289 3.57722 26.3047 5.05253C25.8938 6.51456 25.4829 7.99652 25.072 9.49842C24.6611 10.987 24.2833 12.3826 23.9387 13.6851C23.5941 14.9877 23.3488 15.918 23.203 16.4763C22.7524 16.463 22.2089 16.4563 21.5727 16.4563C20.9364 16.443 20.2538 16.4364 19.5247 16.4364C18.5571 16.4364 17.7154 16.443 16.9997 16.4563C16.2971 16.4563 15.8067 16.463 15.5283 16.4763C15.4621 16.1706 15.3759 15.7851 15.2699 15.3199C15.1771 14.8547 15.0644 14.343 14.9319 13.7848C14.8126 13.2133 14.6866 12.6085 14.5541 11.9706C14.4215 11.3326 14.289 10.7013 14.1564 10.0766C14.0637 9.53165 13.9642 8.96013 13.8582 8.36202C13.7654 7.76392 13.6793 7.18576 13.5997 6.62753H13.4407C13.3479 7.19905 13.2485 7.79715 13.1424 8.42183C13.0364 9.03323 12.9237 9.60475 12.8044 10.1364C12.6719 10.7212 12.5327 11.3193 12.3869 11.9307C12.2411 12.5421 12.0953 13.1269 11.9495 13.6851C11.8169 14.2434 11.691 14.7684 11.5717 15.2601C11.4657 15.7386 11.3729 16.144 11.2933 16.4763C10.962 16.4763 10.4782 16.4696 9.84191 16.4563C9.21892 16.443 8.60256 16.4364 7.99282 16.4364C6.99869 16.4364 6.19676 16.443 5.58702 16.4563C4.97729 16.4563 4.51999 16.463 4.21512 16.4763C4.0428 15.825 3.78433 14.8481 3.4397 13.5456C3.09506 12.2297 2.71729 10.8342 2.30639 9.35886C1.90873 7.88354 1.50445 6.43481 1.09355 5.01266C0.682637 3.57722 0.318122 2.41424 0 1.52373H6.74021C6.76672 1.78956 6.82637 2.22816 6.91916 2.83956C7.0252 3.43766 7.14449 4.11551 7.27705 4.8731C7.42285 5.6307 7.56866 6.42152 7.71446 7.24557C7.87352 8.06962 8.02596 8.82057 8.17176 9.49842C8.26455 9.95032 8.35071 10.3889 8.43024 10.8142C8.50977 11.2396 8.5893 11.6316 8.66883 11.9905H8.78813C8.86766 11.6184 8.95382 11.2196 9.0466 10.7943C9.15264 10.3557 9.25206 9.91044 9.34484 9.45854C9.47739 8.7807 9.6232 8.04968 9.78226 7.26551C9.95458 6.48133 10.107 5.73038 10.2396 5.01266C10.3854 4.28165 10.5113 3.61044 10.6173 2.99905C10.7366 2.37437 10.8162 1.88259 10.8559 1.52373C11.0547 1.52373 11.3132 1.53038 11.6313 1.54367C11.9495 1.54367 12.2808 1.55032 12.6255 1.56361C12.9834 1.56361 13.3346 1.56361 13.6793 1.56361C14.0371 1.56361 14.342 1.56361 14.5939 1.56361C14.8324 1.56361 15.0976 1.56361 15.3892 1.56361C15.694 1.56361 15.9989 1.56361 16.3038 1.56361C16.6086 1.55032 16.8936 1.54367 17.1587 1.54367C17.4371 1.53038 17.669 1.52373 17.8546 1.52373C17.8944 1.85601 17.9607 2.32785 18.0534 2.93924C18.1595 3.55063 18.2721 4.22848 18.3914 4.97278C18.524 5.7038 18.6698 6.47468 18.8289 7.28544C18.9879 8.08291 19.147 8.83386 19.306 9.53829C19.4386 10.0301 19.5446 10.4886 19.6242 10.9139C19.7169 11.3392 19.7965 11.7247 19.8628 12.0703H19.9821C20.0351 11.7114 20.1013 11.3259 20.1809 10.9139C20.2604 10.4886 20.3532 10.0301 20.4592 9.53829C20.5918 8.83386 20.731 8.08956 20.8768 7.30538C21.0358 6.50791 21.1816 5.74367 21.3142 5.01266C21.4467 4.28165 21.566 3.61044 21.6721 2.99905C21.7781 2.37437 21.8576 1.88259 21.9107 1.52373Z" fill="#2E0D59"/>
<path d="M48.129 8.7807C48.129 11.4123 47.3138 13.4193 45.6835 14.8016C44.0531 16.1839 41.4153 16.875 37.7702 16.875C34.1383 16.875 31.527 16.1839 29.9364 14.8016C28.3458 13.4193 27.5505 11.4123 27.5505 8.7807C27.5505 6.13576 28.3922 4.2019 30.0756 2.97911C31.7722 1.74304 34.3437 1.125 37.7901 1.125C41.2364 1.125 43.8211 1.74304 45.5443 2.97911C47.2674 4.2019 48.129 6.13576 48.129 8.7807ZM37.7901 12.5089C39.1686 12.5089 40.1561 12.2032 40.7526 11.5918C41.349 10.9804 41.6473 10.0566 41.6473 8.82057C41.6473 7.59779 41.3424 6.70063 40.7327 6.12911C40.1362 5.55759 39.1553 5.27183 37.7901 5.27183C36.438 5.27183 35.4572 5.55759 34.8474 6.12911C34.2377 6.68734 33.9328 7.58449 33.9328 8.82057C33.9328 10.0566 34.2311 10.9804 34.8275 11.5918C35.4373 12.2032 36.4248 12.5089 37.7901 12.5089Z" fill="#2E0D59"/>
<path d="M73.2066 16.4763H67.2418C67.2816 15.4263 67.3147 14.4228 67.3412 13.4658C67.3678 12.4956 67.3876 11.4323 67.4009 10.2759C67.4009 9.79747 67.4142 9.2924 67.4407 8.76076C67.4672 8.22911 67.4937 7.69747 67.5202 7.16582L67.4208 7.14589C67.2352 7.69082 67.043 8.22247 66.8442 8.74082C66.6454 9.25918 66.4465 9.72437 66.2477 10.1364L63.1062 16.4763H60.104L56.7438 9.77753C56.545 9.36551 56.3395 8.90696 56.1274 8.4019C55.9286 7.88354 55.743 7.36519 55.5707 6.84684L55.4713 6.86677C55.4978 7.38513 55.5243 7.91013 55.5508 8.44177C55.5774 8.96013 55.5972 9.48513 55.6105 10.0168C55.6237 11.2396 55.637 12.356 55.6503 13.3661C55.6768 14.3763 55.7099 15.413 55.7497 16.4763H50.4609C50.5139 15.3997 50.547 14.2766 50.5603 13.107C50.5736 11.9373 50.5802 10.5617 50.5802 8.98006C50.5802 7.35854 50.5736 5.95633 50.5603 4.77342C50.547 3.57722 50.5272 2.49399 50.5007 1.52373H58.5929C58.8845 2.24146 59.2556 3.12532 59.7063 4.17532C60.1702 5.22532 60.6872 6.36171 61.2572 7.58449C61.403 7.93006 61.5554 8.31551 61.7145 8.74082C61.8868 9.16614 62.0591 9.5981 62.2314 10.0367C62.3905 9.5981 62.5495 9.16614 62.7086 8.74082C62.8809 8.31551 63.0333 7.93006 63.1659 7.58449C63.6961 6.40158 64.1998 5.27183 64.677 4.19525C65.1674 3.11867 65.5584 2.22816 65.8501 1.52373H73.1669C73.1536 2.49399 73.1337 3.57722 73.1072 4.77342C73.094 5.95633 73.0873 7.35854 73.0873 8.98006C73.0873 10.5617 73.094 11.9373 73.1072 13.107C73.1205 14.2766 73.1536 15.3997 73.2066 16.4763Z" fill="#2E0D59"/>
<path d="M86.6439 13.0073C87.3199 13.0073 87.8037 12.9076 88.0953 12.7082C88.3869 12.4956 88.5327 12.1101 88.5327 11.5519C88.5327 11.0468 88.3737 10.6946 88.0555 10.4953C87.7507 10.2826 87.247 10.1763 86.5445 10.1763C85.9347 10.1763 85.2653 10.1829 84.5363 10.1962C83.8073 10.2095 83.0584 10.2228 82.2896 10.2361C82.2896 10.7278 82.2896 11.2063 82.2896 11.6715C82.3028 12.1234 82.3161 12.5554 82.3293 12.9674C83.1644 12.9807 83.9332 12.994 84.6357 13.0073C85.3515 13.0073 86.0209 13.0073 86.6439 13.0073ZM88.4532 6.00949C88.4532 5.51772 88.3074 5.17215 88.0158 4.97278C87.7242 4.77342 87.2602 4.67373 86.624 4.67373C85.9612 4.67373 85.272 4.68038 84.5562 4.69367C83.8404 4.69367 83.0915 4.70032 82.3095 4.71361C82.2962 5.12563 82.2896 5.57089 82.2896 6.04937C82.2896 6.51456 82.2896 7.00633 82.2896 7.52468C83.0849 7.53797 83.8338 7.54462 84.5363 7.54462C85.2388 7.54462 85.9016 7.54462 86.5246 7.54462C87.1741 7.53133 87.6579 7.40506 87.976 7.16582C88.2941 6.92658 88.4532 6.54114 88.4532 6.00949ZM90.7397 8.92025V9.03987C91.0313 9.05316 91.303 9.07975 91.5549 9.11962C91.8067 9.15949 92.0321 9.20601 92.2309 9.25918C93.1455 9.51171 93.7884 9.9038 94.1595 10.4354C94.5439 10.9538 94.7361 11.6582 94.7361 12.5487C94.7361 13.9443 94.2854 14.9478 93.3841 15.5592C92.496 16.1706 91.0777 16.4763 89.1292 16.4763H76.1657C76.2187 15.4263 76.2519 14.3165 76.2651 13.1468C76.2784 11.9639 76.285 10.5816 76.285 9C76.285 7.41835 76.2784 6.03608 76.2651 4.85316C76.2519 3.65696 76.2187 2.54715 76.1657 1.52373H88.8707C90.6602 1.52373 92.052 1.81614 93.0461 2.40095C94.0402 2.97247 94.5373 3.98924 94.5373 5.45127C94.5373 6.32848 94.3782 7.00633 94.0601 7.48481C93.742 7.95 93.1985 8.32215 92.4297 8.60126C92.2176 8.68101 91.9658 8.74747 91.6742 8.80063C91.3826 8.8538 91.0711 8.89367 90.7397 8.92025Z" fill="#2E0D59"/>
<path d="M103.5 16.4763H97.1376C97.1641 15.3598 97.1773 14.2301 97.1773 13.087C97.1906 11.944 97.1972 10.5816 97.1972 9C97.1972 7.41835 97.1906 6.05601 97.1773 4.91297C97.1773 3.75665 97.1641 2.6269 97.1376 1.52373H103.5C103.473 2.61361 103.454 3.73671 103.44 4.89304C103.44 6.03608 103.44 7.39842 103.44 8.98006C103.44 10.5484 103.447 11.9108 103.46 13.0671C103.473 14.2234 103.487 15.3598 103.5 16.4763Z" fill="#2E0D59"/>
</svg>
