<svg width="64" height="64" viewBox="0 0 64 64" fill="none" xmlns="http://www.w3.org/2000/svg">
<g clip-path="url(#clip0_1457_30)">
<rect width="64" height="64" fill="white"/>
<path d="M27.0177 47.4385C25.2938 47.814 23.4938 48 21.6452 48H20.7998V60.9618H38.6286C51.0009 60.9618 61.2161 53.8983 61.2161 38.8884C61.2161 25.973 53.6529 18.941 43.6601 17.23C43.8834 18.8816 44 20.6379 44 22.5C44 22.768 43.9976 23.0339 43.9928 23.2975C49.937 24.9652 54.9982 29.7984 54.9982 38.8884C54.9982 50.8081 46.5596 55.1596 38.9458 55.1596H27.0177V47.4385Z" fill="black"/>
<path d="M27.0177 40.5068C25.3586 41.0474 23.6386 41.2972 21.9591 41.2972H20.7998V16.8149H37.2857C37.6485 18.5225 37.8461 20.4143 37.8461 22.5C37.8461 22.5391 37.8461 22.5781 37.8459 22.6171H22.7667C24.6701 22.6171 27.0177 22.9955 27.0177 24.5722V40.5068Z" fill="black"/>
<path d="M19.6286 45.9618C32.0009 45.9618 42.2161 38.8983 42.2161 23.8884C42.2161 8.87844 32.0009 1.81494 19.6286 1.81494H1.7998V45.9618H19.6286ZM19.9458 7.61709C27.7499 7.61709 35.9982 12.284 35.9982 23.8884C35.9982 35.8081 27.5596 40.1596 19.9458 40.1596H8.01769V9.57217C8.01769 7.99549 5.67011 7.61709 3.76668 7.61709H19.9458Z" fill="black"/>
</g>
<defs>
<clipPath id="clip0_1457_30">
<rect width="64" height="64" fill="white"/>
</clipPath>
</defs>
</svg>
